<svg xmlns="http://www.w3.org/2000/svg" viewBox="0 0 776.95 104.43"><defs><style>.cls-1{fill:#a3d2f1;}.cls-2,.cls-3{fill:#040000;}.cls-2{fill-opacity:0;}.cls-4{fill:#eaee9e;}.cls-5{fill:#a1d6d0;}.cls-6{fill:#d0eaef;}.cls-7{fill:#d9d9d9;}.cls-8{fill:#d9dad5;}.cls-9{fill:#faf2b9;}.cls-10{fill:#ddc;}.cls-11{fill:#c9d6de;}.cls-12{fill:#ccd5e7;}.cls-13{fill:#faf2b8;}.cls-14{fill:#e1e2d0;}.cls-15{fill:#fff;}.cls-16{fill:#dedeca;}.cls-17{fill:#e0e1ce;}.cls-18{fill:#e1e1cd;}.cls-19{fill:#e2e3cd;}.cls-20{fill:#dfe0cf;}.cls-21{fill:#e1e1d0;}.cls-22{fill:#dedfcb;}.cls-23{fill:#e0e1cf;}.cls-24{fill:#dfe0ce;}.cls-25{fill:#ccd6e7;}.cls-26{fill:#dcdcd1;}.cls-27{fill:#dcddd0;}.cls-28{fill:#dfdfcf;}.cls-29{fill:#dfdfce;}.cls-30{fill:#cbd5e7;}.cls-31{fill:#dddecd;}.cls-32{fill:#ddddce;}.cls-33{fill:#e2e3d0;}.cls-34{fill:#a4c532;}.cls-35{fill:#e68013;}.cls-36{fill:#fffefb;}.cls-37{fill:#faf1b3;}.cls-38{fill:#7fc4e0;}.cls-39{fill:#f6e87f;}.cls-40{fill:#f7e87f;}.cls-41{fill:#f7e984;}.cls-42{fill:#faf3bb;}.cls-43{fill:#fbf5c6;}.cls-44{fill:#fcf7d2;}.cls-45{fill:#fcf8d6;}.cls-46{fill:#f7e87b;}.cls-47{fill:#f5ec9f;}</style></defs><title>LOGO1_3</title><g id="Layer_2" data-name="Layer 2"><g id="Layer_1-2" data-name="Layer 1"><path class="cls-1" d="M305,33.63h0a11,11,0,0,1,11-11H453.94a11,11,0,0,1,11,11v44a11,11,0,0,1-11,11H316a11,11,0,0,1-11-11Z"/><path class="cls-2" d="M293.75,0H476.2V82.93H293.75Z"/><path class="cls-3" d="M352,27.42a10.19,10.19,0,0,1-3.3-.44,3.22,3.22,0,0,1-1.7-1.12,2.91,2.91,0,0,1-.36-.84,1.88,1.88,0,0,1,.12-1.24,4.05,4.05,0,0,0,1.22.66,6.94,6.94,0,0,0,1.22.3,7.56,7.56,0,0,0,1.32.12,13.63,13.63,0,0,0,2.34-.2,17,17,0,0,0,2.26-.56q.48-2.4.94-4.31a14.87,14.87,0,0,1,1.06-3.12,20.64,20.64,0,0,1,1.34-2.38A8.72,8.72,0,0,1,360,12.5a6.42,6.42,0,0,1,1.9-1.14,6.68,6.68,0,0,1,2.4-.4,2.74,2.74,0,0,1,1.58.4,2.63,2.63,0,0,1,.88,1,3.56,3.56,0,0,1,.36,1.3q.06.7.06,1.3a7.64,7.64,0,0,1-.64,2.88,13.56,13.56,0,0,1-1.8,3.08A18.18,18.18,0,0,1,362,23.78,14.94,14.94,0,0,1,358.37,26L357,31.23a40.51,40.51,0,0,1-1.3,4.25Q355.17,37,354.31,39a21.92,21.92,0,0,1-2.09,3.68l1.54,1a17.87,17.87,0,0,0,1.58.94,11.4,11.4,0,0,0,1.62.7,5.33,5.33,0,0,0,1.74.28,8.81,8.81,0,0,0,1.88-.28,7.62,7.62,0,0,0,1.68-.66,5.87,5.87,0,0,0,1.64-1.3,2.42,2.42,0,0,1,.18,1.44,5.1,5.1,0,0,1-.62,1.92A5.17,5.17,0,0,1,362,48.35a3.88,3.88,0,0,1-2.4.72,9.31,9.31,0,0,1-2.84-.42,15.86,15.86,0,0,1-2.48-1,20.64,20.64,0,0,1-2.18-1.3l-1.9-1.3a10.63,10.63,0,0,1-2.64,1.88,7,7,0,0,1-3.2.72,3.16,3.16,0,0,1-2.24-.78,2.5,2.5,0,0,1-.76-2.1,4.49,4.49,0,0,1,.28-1.14,3.21,3.21,0,0,1,.9-1.26,5.43,5.43,0,0,1,1.82-1,9,9,0,0,1,3-.42,5.82,5.82,0,0,1,1.3.14q.62.14,1.22.34a19.26,19.26,0,0,0,.88-1.84q.44-1,1-2.36.92-2.52,1.6-5.05t1.16-4.94a8.24,8.24,0,0,1-1.18.16Q352.65,27.42,352,27.42Zm-6.63,18.06q.52-.2,1.2-.4A3.93,3.93,0,0,0,348.14,44a3.17,3.17,0,0,0-.92-.2,4,4,0,0,0-2.1.42q-.66.42-.66.82a.45.45,0,0,0,.24.42A1,1,0,0,0,345.39,45.48Zm15.1-27.8q-.2.6-.52,1.76t-.68,2.67a12.69,12.69,0,0,0,3.45-3.19,6.12,6.12,0,0,0,1.3-3.6q0-1.08-.64-1.08a2.41,2.41,0,0,0-1.44.86A6.59,6.59,0,0,0,360.49,17.67Zm25.57,15.38q-.56.8-1.44,2t-1.82,2.36q-.94,1.18-1.84,2.16a9.08,9.08,0,0,1-1.5,1.38,4.09,4.09,0,0,1-.92.4,4.67,4.67,0,0,1-1.06.2,3.56,3.56,0,0,1-1-.06,2.35,2.35,0,0,1-.84-.34,2.09,2.09,0,0,1-.6-.8,6.8,6.8,0,0,1-.38-1.16,6.51,6.51,0,0,1-.14-1.8,8.35,8.35,0,0,1-2.12,2.46,9.59,9.59,0,0,1-2.2,1.26,8.67,8.67,0,0,1-2.4.52,2.38,2.38,0,0,1-1.2-.38,3,3,0,0,1-1.08-1.2,5.57,5.57,0,0,1-.56-2.12,9.57,9.57,0,0,1,.32-3.1,14.73,14.73,0,0,1,1.78-4.43A17.73,17.73,0,0,1,369.72,27a11.82,11.82,0,0,1,2.83-2.14,4.49,4.49,0,0,1,2.32-.64,4.79,4.79,0,0,1,1.76.64,1.91,1.91,0,0,1,.74,1.18,2.87,2.87,0,0,1-.66,2.06,9.1,9.1,0,0,1,.94-.16l.58,0a.78.78,0,0,1,.32,0,.86.86,0,0,1,0,.34,6.48,6.48,0,0,1-.12.94q-.12.68-.36,1.84t-.64,3l-.14.66-.12.6-.14.7-.2,1a5.19,5.19,0,0,0,0,.78,2.91,2.91,0,0,0,.14.78,1.27,1.27,0,0,0,.38.58,1.12,1.12,0,0,0,.74.22,1.9,1.9,0,0,0,1-.5,11.62,11.62,0,0,0,1.36-1.28q.72-.78,1.5-1.72T383.46,34l1.22-1.56.78-1a1.19,1.19,0,0,1,.64-.42.43.43,0,0,1,.48.18,1,1,0,0,1,.06.72A3,3,0,0,1,386.06,33.05Zm-11.71,1.76.48-1.88q.28-1.08.48-2.08t.3-1.66q.1-.66-.06-.62l-.44.12a2.18,2.18,0,0,1-.52.12,5.58,5.58,0,0,0-.64.12,3.65,3.65,0,0,0,.38-1.06,2.21,2.21,0,0,0,0-.66,1,1,0,0,0-.16-.44q-.44-.36-1.54.58a13.61,13.61,0,0,0-2.54,3.45,10.66,10.66,0,0,0-1,2.22,14.12,14.12,0,0,0-.5,2.22,8,8,0,0,0-.06,1.82,1.78,1.78,0,0,0,.32,1,1.32,1.32,0,0,0,1,.42,2.69,2.69,0,0,0,1.14-.32,6.48,6.48,0,0,0,1.16-.78,9.32,9.32,0,0,0,1-1,10,10,0,0,0,.76-1A2.12,2.12,0,0,0,374.35,34.81Zm14,6.83a5.54,5.54,0,0,1-2.48-.48,4.25,4.25,0,0,1-1.5-1.18,4.3,4.3,0,0,1-.76-1.52,5.87,5.87,0,0,1-.22-1.5,17.35,17.35,0,0,1,.2-2.54q.2-1.34.48-2.48t.5-1.94q.22-.8.3-1a7.62,7.62,0,0,1,.94-2,2.94,2.94,0,0,1,1.62-1.18l.84-.16a6.84,6.84,0,0,1,.74,0,2,2,0,0,1,.7.12q-1.08,2.76-1.7,4.59t-.94,3a13.78,13.78,0,0,0-.44,2.12,4.6,4.6,0,0,0,.32,2.72,2.23,2.23,0,0,0,2.12.92,3.13,3.13,0,0,0,2-.78,8.54,8.54,0,0,0,1.76-2,7.16,7.16,0,0,1-.12-1.32,14.08,14.08,0,0,1,.22-2.5q.22-1.22.52-2.28a18.64,18.64,0,0,1,.64-1.9q.34-.84.58-1.32a2.8,2.8,0,0,1,.8-1.18,2.53,2.53,0,0,1,1.16-.26,2.56,2.56,0,0,1,.54,0,2.45,2.45,0,0,1,.38.06q.48.12.48.48,0,.64-.08,1.92a11.82,11.82,0,0,1-.48,2.63q-.28,1.12-.54,1.9t-.5,1.32a5.17,5.17,0,0,1-.48.88l-.44.62q.08,1.2.2,1.92a4.36,4.36,0,0,0,.3,1.1,1.1,1.1,0,0,0,.44.52A1.22,1.22,0,0,0,397,39a2.4,2.4,0,0,0,1.32-.54,12.43,12.43,0,0,0,1.58-1.36q.82-.82,1.64-1.8t1.5-1.86q.68-.88,1.16-1.54l.6-.82a1.19,1.19,0,0,1,.54-.44.41.41,0,0,1,.42.06.59.59,0,0,1,.18.44,1.19,1.19,0,0,1-.18.66,30.63,30.63,0,0,1-2,3.22,28.13,28.13,0,0,1-2.52,3.13,17.41,17.41,0,0,1-2.7,2.4,4.5,4.5,0,0,1-2.56,1,2.1,2.1,0,0,1-1.7-.74,6.3,6.3,0,0,1-1.06-2.14,7,7,0,0,1-2.16,2.22A5.07,5.07,0,0,1,388.33,41.64Zm26.09.36a3.42,3.42,0,0,1-1.58-.34,2.89,2.89,0,0,1-1.06-.9,3,3,0,0,1-.52-1.3,4,4,0,0,1,.08-1.58q.12-.56.4-1.5t.58-2q.3-1.1.56-2.2a14.31,14.31,0,0,0,.34-2,4.2,4.2,0,0,0-.08-1.48.67.67,0,0,0-.68-.58,2.52,2.52,0,0,0-1.32.42,7.41,7.41,0,0,0-1.38,1.14,16.48,16.48,0,0,0-1.4,1.66q-.7.94-1.38,1.94-.36,1.36-.6,2.38T406,37.47q-.18.82-.34,1.44t-.28,1.18a1.55,1.55,0,0,1-.72.78,6.35,6.35,0,0,1-1.28.62,3.61,3.61,0,0,1-1.17.24q-.5,0-.42-.36t.26-1.08l.52-2q.3-1.14.62-2.42t.6-2.44l.44-2q.2-1,.5-2.24t.7-2.8A2.48,2.48,0,0,1,406,26a3.43,3.43,0,0,1,.62-.22,2.75,2.75,0,0,1,.68-.16,5.31,5.31,0,0,1,.64,0,3.16,3.16,0,0,1,.58.14,1.63,1.63,0,0,1,.54.3q-.12.28-.28.78t-.32,1.06q-.16.64-.4,1.32a17.86,17.86,0,0,1,1.18-1.46,10.48,10.48,0,0,1,1.44-1.34,7.8,7.8,0,0,1,1.66-1,4.49,4.49,0,0,1,1.8-.38,2.24,2.24,0,0,1,1.36.44,2.91,2.91,0,0,1,.94,1.22,5.4,5.4,0,0,1,.4,1.86,7.23,7.23,0,0,1-.3,2.36l-.44,1.76q-.2.84-.5,2t-.74,2.5a4.35,4.35,0,0,0-.18,1.52q.06.64.78.64a3.24,3.24,0,0,0,1.82-.88,19,19,0,0,0,2.22-2.12q1.12-1.24,2.12-2.54t1.52-2.1a2,2,0,0,1,.68-.68.49.49,0,0,1,.5,0q.18.12.18.54a2.51,2.51,0,0,1-.32,1.06q-.28.56-.86,1.48t-1.38,2q-.8,1-1.72,2.1a18.88,18.88,0,0,1-1.92,1.92,11.78,11.78,0,0,1-2,1.4A3.87,3.87,0,0,1,414.42,42Zm19.74-8.63-.38,2.36q-.18,1.12-.22,1.8a2,2,0,0,0,.36,1.44,1.17,1.17,0,0,0,.88.44,2.62,2.62,0,0,0,1.38-.56,15.83,15.83,0,0,0,1.74-1.4q.92-.84,1.84-1.84t1.7-1.9q.78-.9,1.32-1.58t.74-.88A.9.9,0,0,1,444,31a.53.53,0,0,1,.42.08.52.52,0,0,1,.16.44,1.55,1.55,0,0,1-.32.8q-.48.76-1.24,1.78t-1.68,2.1q-.92,1.08-1.94,2.12a21.4,21.4,0,0,1-2,1.84,13.6,13.6,0,0,1-2,1.3,3.67,3.67,0,0,1-1.7.5,1.93,1.93,0,0,1-1.06-.32,3.56,3.56,0,0,1-.9-.84,4.08,4.08,0,0,1-.62-1.16,3.31,3.31,0,0,1-.18-1.28q0-.28.12-1a17,17,0,0,1-3.38,3,6,6,0,0,1-3.25,1.1,3,3,0,0,1-2.34-1.2,5.18,5.18,0,0,1-.82-1.68,7.26,7.26,0,0,1-.24-2.52,14.24,14.24,0,0,1,.92-4.4A13.73,13.73,0,0,1,424,28a9.89,9.89,0,0,1,2.76-2.44,6.09,6.09,0,0,1,3.1-.9,2.32,2.32,0,0,1,1.24.34,3.32,3.32,0,0,1,1,.88,5.26,5.26,0,0,1,.66,1.18,7.14,7.14,0,0,1,.38,1.2q.28-1.16.52-2.28t.48-2.12q.4-1.48.84-3.19l.92-3.4q.52-1.92,1.16-4a3.47,3.47,0,0,1,.76-.48,4.3,4.3,0,0,1,.68-.24,2.15,2.15,0,0,1,.68-.12,2.35,2.35,0,0,1,.72.1,1,1,0,0,1,.54.52,3.49,3.49,0,0,1,.3,1.26,15.77,15.77,0,0,1,0,2.28,18.67,18.67,0,0,1-.62,3.84,36.52,36.52,0,0,1-1.42,4.29q-.88,2.22-2,4.43A44.57,44.57,0,0,1,434.16,33.37Zm-2.36.52q.16-.76.3-1.52t.34-1.56l-.14.08-.14.08q-.44.2-.6,0a1.22,1.22,0,0,1-.16-.7q0-.24,0-.86a6.38,6.38,0,0,0-.22-1.28A3.55,3.55,0,0,0,430.6,27a1.16,1.16,0,0,0-1-.5,2.76,2.76,0,0,0-1.88.94,12.3,12.3,0,0,0-1.8,2.28,15.42,15.42,0,0,0-1.4,2.86,9.94,9.94,0,0,0-.64,2.71,4.8,4.8,0,0,0,.48,2.76,1.74,1.74,0,0,0,1.52.84,3,3,0,0,0,1.58-.56,11,11,0,0,0,1.68-1.36,21.43,21.43,0,0,0,1.52-1.64Q431.36,34.45,431.8,33.89Zm7.91,6.91a1.39,1.39,0,0,1-.62.58.8.8,0,0,1-.6,0,.55.55,0,0,1-.34-.42,1.19,1.19,0,0,1,.16-.8l.54-1.08,1-2,1.26-2.56,1.3-2.62q.62-1.24,1.14-2.22l.76-1.42q-.44-.4-.6-.58a1.6,1.6,0,0,1-.24-.78,2.81,2.81,0,0,1,.24-1.36,8.2,8.2,0,0,1,.84-1.62,6.73,6.73,0,0,1,1.16-1.34,1.92,1.92,0,0,1,1.24-.56,1.72,1.72,0,0,1,1.58.72,3.35,3.35,0,0,1,.54,1.48,4.35,4.35,0,0,1-.68,2.76l.32.18a1.54,1.54,0,0,0,.64.1,3.39,3.39,0,0,0,.9-.08,3,3,0,0,1,.82-.08,1.76,1.76,0,0,1,1.12.34,2.7,2.7,0,0,1,.72.84,4.09,4.09,0,0,1,.42,1.08,6.85,6.85,0,0,1,.18,1.06,3.28,3.28,0,0,1-.52,2.08q-.64,1.08-1.56,2.36-.56.8-1.12,1.8a3.1,3.1,0,0,0-.48,1.8,2.19,2.19,0,0,0,.28.84q.2.32,1.12.32a2.93,2.93,0,0,0,1.5-.5,11.14,11.14,0,0,0,1.68-1.28,23,23,0,0,0,1.7-1.72q.84-.94,1.56-1.84t1.22-1.62q.5-.72.74-1a1,1,0,0,1,.52-.44.68.68,0,0,1,.56,0,.6.6,0,0,1,.3.48,1.53,1.53,0,0,1-.3,1q-.24.4-.82,1.28t-1.4,2q-.82,1.08-1.82,2.22a20.58,20.58,0,0,1-2.1,2.08,12.89,12.89,0,0,1-2.2,1.54,4.38,4.38,0,0,1-2.1.6,3.33,3.33,0,0,1-1.72-.4,3.55,3.55,0,0,1-1.1-1,3.74,3.74,0,0,1-.6-1.28,4.09,4.09,0,0,1-.14-1.3,3.47,3.47,0,0,1,.26-1q.22-.54.52-1.12t.64-1.16q.34-.58.62-1.14.68-1.16,1.1-2a3.17,3.17,0,0,0,.42-1.38,1.27,1.27,0,0,0-.16-.64.55.55,0,0,0-.52-.28l-.34,0-.2,0-.28,0-.54,0a2.17,2.17,0,0,1-.88-.16,3.93,3.93,0,0,0-.68-.24l-.72,1.2-1.3,2.16-1.56,2.6-1.54,2.54-1.22,2Q439.83,40.64,439.71,40.8Zm28.65-14.5a5,5,0,0,1,1-.62,4.28,4.28,0,0,1,.9-.3,2.47,2.47,0,0,1,.88-.08q1.08.08,1.34.68a3.76,3.76,0,0,1,.06,1.92,11.77,11.77,0,0,1-.48,1.72q-.36,1-.84,2.54t-1,3.42q-.54,1.92-1,4.31-.48,2-1,4.51-.48,2.24-1.14,5.39T465.6,57q-.2,1-.86,1.16a2.09,2.09,0,0,1-1.38-.16,3.52,3.52,0,0,1-.52-.36l-.44-.46a2,2,0,0,1-.4-.7q.92-3.36,1.62-6.11t1.26-4.79q.6-2.36,1.12-4.23.2-.84.38-1.66t.38-1.62a16.88,16.88,0,0,1-1.12,1.6A7.77,7.77,0,0,1,464.32,41a5.64,5.64,0,0,1-1.54.86,3.49,3.49,0,0,1-1.7.18,4.12,4.12,0,0,1-3.06-1.6,5.41,5.41,0,0,1-.78-3.43,12.25,12.25,0,0,1,.24-1.84q.2-1,.44-1.92t.46-1.66q.22-.74.34-1.06a26.12,26.12,0,0,0,.7-2.6,2.1,2.1,0,0,0-.34-1.8,3.93,3.93,0,0,1,1.06-.5q.5-.14.9-.22a5,5,0,0,1,.88,0q1.08.16,1.26.8a4,4,0,0,1-.14,1.92q-.16.68-.52,1.74t-.76,2.18q-.4,1.12-.72,2.06a7,7,0,0,0-.36,1.34,5.76,5.76,0,0,0,0,2.78,1.33,1.33,0,0,0,1.4,1,2,2,0,0,0,1.16-.46,7.78,7.78,0,0,0,1.3-1.22,15.73,15.73,0,0,0,1.3-1.74q.64-1,1.18-2t1-2a11.72,11.72,0,0,0,.62-1.72q.28-1.48.36-2.32A1.88,1.88,0,0,0,468.36,26.3Z"/><path class="cls-3" d="M401.24,97.53a7,7,0,0,1-3.62-1,8.65,8.65,0,0,1-2.76-2.64A12.5,12.5,0,0,1,393.15,90a17.15,17.15,0,0,1-.5-4.82,33.51,33.51,0,0,1,.62-5.19,38.79,38.79,0,0,1,1.54-5.62,38.07,38.07,0,0,1,2.42-5.43,22.91,22.91,0,0,1,3.26-4.61,15.84,15.84,0,0,1,4.08-3.22,10.1,10.1,0,0,1,4.91-1.22,5.46,5.46,0,0,1,2.78.66,5.34,5.34,0,0,1,1.84,1.74,7,7,0,0,1,1,2.44,11.89,11.89,0,0,1,.24,2.76,14.65,14.65,0,0,1-.38,2.56,8.94,8.94,0,0,1-.84,2.22,4.8,4.8,0,0,1-1.32,1.56,2.9,2.9,0,0,1-1.78.58,2,2,0,0,1-.92-.32,3.57,3.57,0,0,1-.82-.72,4.79,4.79,0,0,1-.78-1.4,3.39,3.39,0,0,0,1.7-1.54,9.84,9.84,0,0,0,.94-2.3,16.47,16.47,0,0,0,.48-3,3,3,0,0,0-.68-2.4,2.36,2.36,0,0,0-1.72-.76,6,6,0,0,0-4,2,20.41,20.41,0,0,0-3.86,5.29,37.89,37.89,0,0,0-3,7.77A41.79,41.79,0,0,0,397,86.34a14.07,14.07,0,0,0,.3,3.79,7.57,7.57,0,0,0,1.08,2.56,4.29,4.29,0,0,0,1.58,1.44,3.9,3.9,0,0,0,1.76.44,6,6,0,0,0,2.64-.6,10.32,10.32,0,0,0,2.26-1.48,13,13,0,0,0,1.76-1.82A12.73,12.73,0,0,0,409.47,89a1.29,1.29,0,0,1,.6-.64.56.56,0,0,1,.56.06.89.89,0,0,1,.32.56,1.44,1.44,0,0,1-.16.9,19.51,19.51,0,0,1-1.66,2.72,15.56,15.56,0,0,1-2.2,2.46,10.81,10.81,0,0,1-2.65,1.78A7,7,0,0,1,401.24,97.53ZM432.4,60a3.38,3.38,0,0,1,2.3.78,3.33,3.33,0,0,1,.78,2.82q0,.68-.32,2.54t-.68,4.37q-.4,2.52-.9,5.41t-.94,5.65h.84q.4,0,.88,0t1-.12a8.17,8.17,0,0,1-.44.9,7,7,0,0,1-.48.74,7.06,7.06,0,0,1-.56.64,4.34,4.34,0,0,1-.84.78,5.73,5.73,0,0,1-.92.54q-.28,2-.46,3.5t-.22,2.54a16.64,16.64,0,0,0,.08,2.84,12.77,12.77,0,0,0,.48,2.36,4.09,4.09,0,0,0,1.16,1.92l-4.64,1.52a4.7,4.7,0,0,1-.7-1.82,18.93,18.93,0,0,1-.3-2.26,18.58,18.58,0,0,1,0-2.72q.08-1.4.44-3.65t.8-4.94a14.46,14.46,0,0,0-1.74-.4,12.38,12.38,0,0,0-2.09-.16q-1,0-2.18.08t-2.26.2q-.48,1.76-1,3.72-.52,2.12-.94,3.62t-.8,2.5a8.91,8.91,0,0,1-.76,1.6,2.74,2.74,0,0,1-.82.88,6.8,6.8,0,0,1-1.2.44q-.68.2-1.72.4a23.75,23.75,0,0,1-2.68.32q.6-.72,1-1.32a10.27,10.27,0,0,0,.88-1.48q.44-.88,1-2.26t1.38-3.62q.36-.92.74-2t.82-2.26L414,84.9a8.23,8.23,0,0,0-1.2.24,1.73,1.73,0,0,1-.52,0q-.52-.08-.56-.52a.88.88,0,0,1,.38-.76,8.33,8.33,0,0,1,1-.48q.32-.16,1.46-.58t2.78-.9q.6-1.68,1.18-3.34t1.14-3.18q.56-1.52,1.08-2.86t1-2.3A35.36,35.36,0,0,1,423.43,67a22,22,0,0,1,2.44-3.34,14,14,0,0,1,3-2.6A6.48,6.48,0,0,1,432.4,60ZM432,68.32q.44-1.8.6-3a9.58,9.58,0,0,0,.12-1.82,1.6,1.6,0,0,0-.26-.92.68.68,0,0,0-.54-.26,2.89,2.89,0,0,0-1.28.4,8.31,8.31,0,0,0-1.6,1.14,12,12,0,0,0-1.66,1.84,13.59,13.59,0,0,0-1.46,2.5q-.92,2.08-2.08,5.09T421.29,81q.8-.12,1.58-.2a14.9,14.9,0,0,1,1.54-.08q1.36,0,2.59.1t2.28.22q.36-1.92.74-3.78t.74-3.54l.66-3.07Q431.72,69.28,432,68.32Zm8.19-3.24a1,1,0,0,1-.72,0,.76.76,0,0,1-.36-.4,1.57,1.57,0,0,1-.12-.62,4.41,4.41,0,0,1,.18-1.3,4,4,0,0,1,.26-.68,2,2,0,0,1,.38-.54,1.17,1.17,0,0,1,.58-.3q1.84-.32,3.57-.48t3.14-.24q1.6-.12,3.08-.12l.64,0,.64,0a2,2,0,0,1,.58-.06,2.45,2.45,0,0,1,.38.06q1.16,0,2.4.12l2.34.18q1.3.1,2.58.26a1.55,1.55,0,0,1,0,.8l-.08.48a1,1,0,0,1-.2.44,2,2,0,0,1-.3.38,1.6,1.6,0,0,1-.42.3l-2.62-.06-2.22,0h-2.16l-1.28,4.54q-.76,2.69-1.54,5.67t-1.48,5.91q-.7,2.94-1.1,5.29t-.8,4.47q-.16.92-.34,1.92t-.32,2q-.14,1-.26,1.84t-.2,1.6a8.43,8.43,0,0,1-1.2.5,7.79,7.79,0,0,1-1,.26,4.3,4.3,0,0,1-1,.12,2,2,0,0,1-1.18-.22q-.22-.22-.06-.86t.72-3q.24-1,.62-2.62t.9-3.83q.52-2.26,1.24-5.27t1.64-6.93l2.68-11.1q-1.2.16-2.36.36t-2.18.42l-1.84.42Zm29.56,6.67q0-.12.24-.62t.62-1.24q.34-.74.68-1.68a9.46,9.46,0,0,0,.48-1.94,6.7,6.7,0,0,0,0-2,4.36,4.36,0,0,0-.84-1.92,1.62,1.62,0,0,0-1.18-.54,4.81,4.81,0,0,0-1.76.24,9.62,9.62,0,0,0-2,.92A10.87,10.87,0,0,0,464,64.43a8.85,8.85,0,0,0-1.5,1.82,4.51,4.51,0,0,0-.7,2,5.4,5.4,0,0,0,.06,1.56,7.35,7.35,0,0,0,.38,1.32,11.2,11.2,0,0,0,.52,1.12q.28.52.52.92a6.22,6.22,0,0,0,1,1.24q.68.68,1.48,1.54a22,22,0,0,1,1.6,1.94,12.61,12.61,0,0,1,1.4,2.44,11.52,11.52,0,0,1,.84,3,13.45,13.45,0,0,1,0,3.72,17.17,17.17,0,0,1-1.4,4.94,12.51,12.51,0,0,1-2.1,3.18,7.74,7.74,0,0,1-2.3,1.74,9.26,9.26,0,0,1-1.92.7q-.6.12-1.42.22a6.15,6.15,0,0,1-1.72,0,7,7,0,0,1-1.82-.56,4.57,4.57,0,0,1-1.64-1.3,8.22,8.22,0,0,1-1.32-2.16,9.75,9.75,0,0,1-.66-2.3,5.69,5.69,0,0,1,.22-2.7,5,5,0,0,1,.68-.64,5.77,5.77,0,0,1,.72-.48,8.78,8.78,0,0,1,.84-.44q.52-.16,1-.28a6.49,6.49,0,0,1,.94-.1,2.45,2.45,0,0,1,.94.14,4.57,4.57,0,0,0-.84,1.28,4.07,4.07,0,0,0-.24.56,6.93,6.93,0,0,0-.1,1.82,6.6,6.6,0,0,0,.44,2,4.65,4.65,0,0,0,1.1,1.68,2.77,2.77,0,0,0,1.92.74q2.92.08,5-4.55a7,7,0,0,0,.7-2.92,9.94,9.94,0,0,0-.36-2.84,12.76,12.76,0,0,0-1-2.54,14.43,14.43,0,0,0-1.26-2q-.64-.84-1.54-1.82t-1.78-2.14A17.35,17.35,0,0,1,459,73.79a9.49,9.49,0,0,1-.94-3,7.91,7.91,0,0,1,.42-4.09,10.76,10.76,0,0,1,2-3.25,11.59,11.59,0,0,1,2.76-2.28,9,9,0,0,1,2.66-1.12q6.43-1.28,8.43,2.16a5.7,5.7,0,0,1,.92,2.8,10.61,10.61,0,0,1-.18,2.74,10.49,10.49,0,0,1-.64,2.12,3.48,3.48,0,0,1-.5.93,3.37,3.37,0,0,1-.76.52,6.64,6.64,0,0,1-1.68.52,2.58,2.58,0,0,1-.64.08,5,5,0,0,1-.6,0A1.76,1.76,0,0,1,469.71,71.76Z"/><path class="cls-4" d="M170.38,72.93h14.89c.32,0,.63.22,1,.12a11.53,11.53,0,0,1,2.65-.12c.44,0,.59.12.59.55q0,13.91,0,27.82a2.9,2.9,0,0,1-.79,1.89,3.42,3.42,0,0,1-1.33,1,2.18,2.18,0,0,1-.77.2H157.62a1.89,1.89,0,0,1-.9-.32,3.56,3.56,0,0,1-1.7-2,2.82,2.82,0,0,1-.18-.92q0-13.81,0-27.62c0-.42.22-.59.62-.59Z"/><path class="cls-5" d="M119.45,20.21h14.82c.28,0,.51.21.8.14a14.15,14.15,0,0,1,2.88-.13c.48,0,.59.11.59.58q0,13.89,0,27.78a2.9,2.9,0,0,1-.79,1.89,3.44,3.44,0,0,1-1.33,1,2.15,2.15,0,0,1-.77.2H106.7a1.89,1.89,0,0,1-.9-.32,3.55,3.55,0,0,1-1.7-2,2.84,2.84,0,0,1-.18-.92q0-13.79,0-27.59c0-.48.24-.63.65-.63Z"/><path class="cls-6" d="M170.37,19.61h14.75c.39,0,.74.25,1.13.13a11.62,11.62,0,0,1,2.62-.13.56.56,0,0,1,.26,0,.48.48,0,0,1,.34.5q0,13.94,0,27.88a2.83,2.83,0,0,1-.75,1.82,3.32,3.32,0,0,1-1.35,1.06,2.46,2.46,0,0,1-.84.21H157.67a2.18,2.18,0,0,1-1.32-.55,3.43,3.43,0,0,1-1.29-1.74,3.26,3.26,0,0,1-.21-.88q0-13.91,0-27.82c0-.32.15-.48.5-.51h15Z"/><path class="cls-7" d="M121.11,104.09H106.72a2.25,2.25,0,0,1-1.44-.66,5.5,5.5,0,0,1-.53-.5,3.66,3.66,0,0,1-.79-1.53,5.9,5.9,0,0,1-.1-1.63q0-13.28,0-26.56c0-.47.18-.63.65-.57a2.46,2.46,0,0,0,.3,0q14.57,0,29.14,0a6.57,6.57,0,0,0,1.22.07c.94-.18,1.9.06,2.84-.11.18,0,.46.25.47.43s0,.15,0,.23q0,13.64,0,27.29a3.65,3.65,0,0,1-.47,1.8,4.13,4.13,0,0,1-1.2,1.24,2.89,2.89,0,0,1-1.91.5Z"/><path class="cls-4" d="M172.19,71.79H155.41c-.36,0-.51-.15-.51-.51q0-2.9,0-5.8a3.09,3.09,0,0,1,.48-1.53,3.45,3.45,0,0,1,.76-.9,4.18,4.18,0,0,1,1.64-.84,9.09,9.09,0,0,1,2.55-.15c7.08,0,14.17,0,21.25,0a20,20,0,0,0,2.22.09,9.65,9.65,0,0,1,1.93-.1,4.12,4.12,0,0,1,3,1.5,4.88,4.88,0,0,1,.57,1.17,2.83,2.83,0,0,1,.15,1.19c0,1.77,0,3.54,0,5.3,0,.52-.05.57-.56.57H172.19Z"/><path class="cls-5" d="M138.47,18.88a.28.28,0,0,1-.34.19H104.52c-.21,0-.34-.14-.53-.16s-.06-.08-.06-.13c.1-2,0-4,0-6a3.2,3.2,0,0,1,.86-2.11,4,4,0,0,1,1.75-1.2c.26-.09.57-.09.84-.18a.92.92,0,0,0,.36,0h22.83a.93.93,0,0,0,.36,0,7.69,7.69,0,0,0,2.13.12,1.27,1.27,0,0,0,.32-.07,11.1,11.1,0,0,1,1.24,0,1,1,0,0,0,.36,0,4.8,4.8,0,0,1,1.81.61,3.71,3.71,0,0,1,1.38,1.54c.1.25.17.51.26.76a.42.42,0,0,1,0,.23q0,3.09,0,6.18A.41.41,0,0,1,138.47,18.88Z"/><path class="cls-7" d="M137.8,63.38a2.65,2.65,0,0,1,.53,1.25.65.65,0,0,1,.06.42q0,2.88,0,5.77c0,.5-.05.55-.55.55H104.73c-.24,0-.51.13-.7-.13-.13-.07-.08-.2-.08-.3q0-3,0-5.93a.58.58,0,0,1,.1-.37,2.17,2.17,0,0,1,.62-1.35,3.75,3.75,0,0,1,1.41-1.17c.37-.17.78-.19,1.15-.33a.74.74,0,0,1,.36,0h23.17a.72.72,0,0,1,.36,0,3.56,3.56,0,0,0,1.21.06,2.56,2.56,0,0,0,1-.06,9.24,9.24,0,0,1,1.73,0c.3.15.65.11,1,.25a3.63,3.63,0,0,1,1,.61A5.1,5.1,0,0,1,137.8,63.38Z"/><path class="cls-6" d="M189.4,18.35a.22.22,0,0,1-.21.13H155.57a2.44,2.44,0,0,1-.63-.15c-.1,0-.08-.12-.08-.19a.39.39,0,0,0,0-.23q0-2.86,0-5.71a.39.39,0,0,0,0-.23,4.15,4.15,0,0,1,1.4-2.42,1.77,1.77,0,0,1,1.21-.44q14.73,0,29.46,0a1.54,1.54,0,0,1,1.22.5,7.83,7.83,0,0,0,.63.63,1.93,1.93,0,0,1,.54,1.08c0,.18.21.32.15.52a.75.75,0,0,0,0,.36q0,2.89,0,5.78A.72.72,0,0,1,189.4,18.35Z"/><path class="cls-8" d="M104.05,71.2c.13.1.25.21.44.14a.93.93,0,0,1,.3,0h33c.57,0,.58,0,.58-.57q0-3.06,0-6.13h.06a.43.43,0,0,1,0,.26q0,3.06,0,6.11a.41.41,0,0,1,0,.26.64.64,0,0,1-.53.13h-33a1.26,1.26,0,0,0-.49,0c-.16.06-.24-.06-.32-.17s0,0,0,0Z"/><path class="cls-9" d="M131.12,61.78H107.23c.1-.11.23-.06.34-.06h23.2C130.89,61.72,131,61.67,131.12,61.78Z"/><path class="cls-9" d="M131,9.34c-.1.1-.23.06-.35.06H107.78c-.12,0-.24,0-.35-.06H131Z"/><path class="cls-10" d="M104.05,71.2v.07c-.16,0-.13-.15-.13-.26q0-3,0-6.07c0-.12,0-.25.13-.31a1.86,1.86,0,0,0-.07.55c0,1.88,0,3.76,0,5.64C104,71,103.94,71.09,104.05,71.2Z"/><path class="cls-9" d="M138.4,71.27q0-3.31,0-6.63c.1.07.07.18.07.27q0,3,0,6.08C138.47,71.09,138.51,71.2,138.4,71.27Z"/><path class="cls-9" d="M138.47,18.88q0-3.31,0-6.63c.1.09.06.2.06.31q0,3,0,6C138.53,18.68,138.58,18.79,138.47,18.88Z"/><path class="cls-11" d="M189.4,18.35q0-3.06,0-6.12c0-.13-.05-.27.06-.38q0,3.11,0,6.22C189.46,18.17,189.49,18.28,189.4,18.35Z"/><path class="cls-12" d="M154.85,12c.1.09.06.21.06.31q0,2.77,0,5.54c0,.11,0,.22-.06.31Q154.85,15.07,154.85,12Z"/><path class="cls-13" d="M135.1,61.78h-1.73c.16-.14.36-.07.53-.06A3.74,3.74,0,0,1,135.1,61.78Z"/><path class="cls-13" d="M135,9.34a8.44,8.44,0,0,1-1.6.05,3.13,3.13,0,0,1,1-.06C134.65,9.32,134.84,9.34,135,9.34Z"/><path class="cls-14" d="M137.8,63.38a4.74,4.74,0,0,1-.73-.73A1.6,1.6,0,0,1,137.8,63.38Z"/><path class="cls-15" d="M172.18,78a10.74,10.74,0,1,1-.61,21.46A10.72,10.72,0,0,1,164.81,81,10.18,10.18,0,0,1,172.18,78Z"/><path class="cls-15" d="M121.26,25.31a10.72,10.72,0,0,1,7.06,18.79,10.71,10.71,0,0,1-17.5-5.5,10.4,10.4,0,0,1,3.06-10.32A10.19,10.19,0,0,1,121.26,25.31Z"/><path class="cls-15" d="M161.46,35.69a10.69,10.69,0,0,1,17.83-8.25,10.66,10.66,0,0,1,3.63,8A10.12,10.12,0,0,1,181.29,41a10.46,10.46,0,0,1-9.72,5.13,10.06,10.06,0,0,1-7.35-3.52A10.12,10.12,0,0,1,161.46,35.69Z"/><path class="cls-15" d="M110.48,88.36a9.92,9.92,0,0,1,3.14-7.53,10.29,10.29,0,0,1,8.16-3.12,10.5,10.5,0,0,1,6,2.25,10.63,10.63,0,0,1,4.18,8.49,10.22,10.22,0,0,1-2.18,6.44,10.45,10.45,0,0,1-9.25,4.28,10.05,10.05,0,0,1-7.15-3.4A10.28,10.28,0,0,1,110.48,88.36Z"/><path class="cls-15" d="M163.6,68.42h-2.85a1,1,0,0,1-.94-.86,8,8,0,0,1,0-1.4c0-.3.43-.65.78-.65h2.72c.5,0,1,0,1.49,0a10.91,10.91,0,0,1,1.81.05.79.79,0,0,1,.75.83c0,.41,0,.82,0,1.23a.86.86,0,0,1-.83.84Z"/><path class="cls-15" d="M178.4,66.91a1.53,1.53,0,0,1-1.52,1.61,1.63,1.63,0,0,1-1.6-1.48,1.61,1.61,0,0,1,1.48-1.69A1.7,1.7,0,0,1,178.4,66.91Z"/><path class="cls-15" d="M184.62,66.92a1.61,1.61,0,0,1-1.55,1.62A1.77,1.77,0,0,1,181.51,67a1.94,1.94,0,0,1,1.58-1.59C183.76,65.38,184.78,66.2,184.62,66.92Z"/><path class="cls-15" d="M112.64,12.78h2.72c.79,0,1.17.37,1.1,1.1,0,.3,0,.6,0,.89a.84.84,0,0,1-.92.93H109.8c-.48,0-.73-.4-.89-.84s.07-.84,0-1.27.39-.81.78-.81Z"/><path class="cls-15" d="M127.47,14.25a1.53,1.53,0,0,1-1.58,1.52,1.66,1.66,0,0,1-1.53-1.46,1.53,1.53,0,0,1,1.54-1.65A1.58,1.58,0,0,1,127.47,14.25Z"/><path class="cls-15" d="M133.7,14.2a1.57,1.57,0,0,1-1.54,1.57,1.62,1.62,0,0,1-1.56-1.58,1.85,1.85,0,0,1,1.54-1.53C132.79,12.71,133.77,13.29,133.7,14.2Z"/><path class="cls-15" d="M109.42,68.08a2.31,2.31,0,0,1-.25-.16c-.2-.17-.41-.34-.35-.66a.23.23,0,0,0-.06-.24,3.59,3.59,0,0,1,.16-1.56.58.58,0,0,1,.23-.23h.06a.63.63,0,0,1,.44-.1h3.59a.69.69,0,0,0,.35,0h1.19a3.46,3.46,0,0,0,.74,0c.11,0,.24,0,.32.1.3,0,.34.28.53.4a10.45,10.45,0,0,1,0,1.92,1.64,1.64,0,0,1-.53.53.39.39,0,0,1-.26,0h-5.92A.39.39,0,0,1,109.42,68.08Z"/><path class="cls-15" d="M125.28,65.1h.2a.78.78,0,0,1,.66-.06,2.07,2.07,0,0,1,.85.46c.1,0,.12.16.21.2h0a1.16,1.16,0,0,0,.13.27h0a2.54,2.54,0,0,0,.13.4A2,2,0,0,1,127,67.7a1,1,0,0,1-.69.38c-.16,0-.25.13-.4.14a1.77,1.77,0,0,1-1.46-.86c-.05-.16-.13-.31-.19-.47a.67.67,0,0,1,0-.46h0c.09-.12,0-.28.07-.4a2.31,2.31,0,0,1,.66-.8A1.26,1.26,0,0,1,125.28,65.1Z"/><path class="cls-15" d="M133.63,67.09c-.16.07-.16.25-.24.38a1.48,1.48,0,0,1-1.73.63l-.28-.08a1.44,1.44,0,0,1-.6-.53A1.62,1.62,0,0,1,132,65a1.55,1.55,0,0,1,1,.33,1.78,1.78,0,0,1,.6.73h0A2.94,2.94,0,0,1,133.63,67.09Z"/><path class="cls-16" d="M109.42,68.08h6.43c-.08.11-.2.07-.31.07h-5.82C109.63,68.15,109.51,68.19,109.42,68.08Z"/><path class="cls-17" d="M113.61,65.1c-.1.11-.23.06-.34.06h-3.49a1.62,1.62,0,0,0-.55.07c.08-.17.24-.13.38-.13Z"/><path class="cls-17" d="M109.16,65.24a1.08,1.08,0,0,0-.34.94c0,.28-.11.56-.06.84a.16.16,0,0,1-.07-.14c0-.41.07-.81.09-1.21A.43.43,0,0,1,109.16,65.24Z"/><path class="cls-18" d="M116.38,67.55q0-1,0-1.92a2.34,2.34,0,0,1,.06,1A1.81,1.81,0,0,1,116.38,67.55Z"/><path class="cls-19" d="M133.63,66.1l-.6-.73A1,1,0,0,1,133.63,66.1Z"/><path class="cls-20" d="M115.86,65.23a1.67,1.67,0,0,0-.67-.06c-.13,0-.28.05-.4-.06h.81C115.71,65.1,115.83,65.07,115.86,65.23Z"/><path class="cls-21" d="M130.78,67.48l.6.53A.76.76,0,0,1,130.78,67.48Z"/><path class="cls-22" d="M133.63,67.09v-1A1.52,1.52,0,0,1,133.63,67.09Z"/><path class="cls-20" d="M126.14,65a1.74,1.74,0,0,0-.66.06A.53.53,0,0,1,126.14,65Z"/><path class="cls-23" d="M127.46,66.36a.47.47,0,0,1-.13-.4A.6.6,0,0,1,127.46,66.36Z"/><path class="cls-24" d="M124.28,66.43v.46A.37.37,0,0,1,124.28,66.43Z"/><path class="cls-24" d="M124.35,66c0,.13.05.28-.07.4C124.3,66.3,124.22,66.14,124.35,66Z"/><path class="cls-23" d="M127.33,66a.24.24,0,0,1-.13-.27A.35.35,0,0,1,127.33,66Z"/><path class="cls-23" d="M127.2,65.7c-.14,0-.15-.12-.21-.2C127.13,65.5,127.15,65.61,127.2,65.7Z"/><path class="cls-20" d="M125.28,65.1a.37.37,0,0,1-.27.13A.23.23,0,0,1,125.28,65.1Z"/><path class="cls-15" d="M160.49,15a1.38,1.38,0,0,1-.63-.76c-.22-.54.12-1,0-1.51,0-.21.45-.59.67-.59,2,0,3.95,0,5.92,0,.57,0,.85.31.88.93,0,.39,0,.77,0,1.16a.87.87,0,0,1-.66.75.42.42,0,0,1-.23,0h-5.78A.42.42,0,0,1,160.49,15Z"/><path class="cls-15" d="M178.39,13.66a1.58,1.58,0,0,1-1.57,1.51,1.85,1.85,0,0,1-1.55-1.45,1.75,1.75,0,0,1,1.55-1.66A1.73,1.73,0,0,1,178.39,13.66Z"/><path class="cls-15" d="M184.62,13.91a1.85,1.85,0,0,1-1.22,1.23,1.54,1.54,0,0,1-1.7-.91c-.36-.9,0-1.48.83-1.93.19-.1.37-.29.59-.23a2.17,2.17,0,0,1,1,.5,3.34,3.34,0,0,1,.4.62C184.64,13.42,184.53,13.67,184.62,13.91Z"/><path class="cls-12" d="M160.49,15h6.23c-.09.1-.21.06-.31.06H160.8C160.69,15.1,160.58,15.14,160.49,15Z"/><path class="cls-25" d="M184.62,13.91c-.14-.23,0-.49-.06-.73C184.7,13.41,184.59,13.67,184.62,13.91Z"/><path class="cls-4" d="M172.35,80.89a7.41,7.41,0,0,1,1.17,0,9.82,9.82,0,0,1,1.35.36,6,6,0,0,1,1.73.82,7.55,7.55,0,0,1,2,1.87,9.18,9.18,0,0,1,.75,1.21c.24.49.16.63-.33.85a3,3,0,0,0-1.64,1.49,2.72,2.72,0,0,0-.25,1.91,2.76,2.76,0,0,0,1.58,1.94,3.21,3.21,0,0,0,.55.21c.18,0,.25.18.2.39a4.53,4.53,0,0,1-.73,1.42,7,7,0,0,1-1.4,1.52A8.23,8.23,0,0,1,175,96.22a10.67,10.67,0,0,1-2.18.53,3,3,0,0,1-1.5-.06,6.19,6.19,0,0,0-.81-.13,8.17,8.17,0,0,1-2.59-1,7.72,7.72,0,0,1-2.29-2.12,7.36,7.36,0,0,1-1.06-2.2,5.86,5.86,0,0,1-.31-1.77,9.79,9.79,0,0,1,.1-2.23,8.9,8.9,0,0,1,.8-2.29,7.53,7.53,0,0,1,1.91-2.34,9.17,9.17,0,0,1,2.29-1.27A6.7,6.7,0,0,1,172.35,80.89Z"/><path class="cls-5" d="M113.28,36a7.49,7.49,0,0,1,.56-2.93,8.44,8.44,0,0,1,1.09-1.89A7.45,7.45,0,0,1,118,28.74a7.59,7.59,0,0,1,3.6-.63,7.08,7.08,0,0,1,2.15.34,11.31,11.31,0,0,1,1.39.65,6.78,6.78,0,0,1,2.43,2.09,9,9,0,0,1,.81,1.28c.22.45.13.62-.31.82a3,3,0,0,0-1.8,1.8,4,4,0,0,0-.2,1.08,2.55,2.55,0,0,0,.28,1,2.69,2.69,0,0,0,1.53,1.52l.12.05c.51.12.64.36.4.81a7.91,7.91,0,0,1-2.25,2.79,8.42,8.42,0,0,1-2.39,1.24,11,11,0,0,1-1.55.36,6.19,6.19,0,0,1-2.74-.13,8.38,8.38,0,0,1-2.32-.9,6,6,0,0,1-1.3-1,8.49,8.49,0,0,1-1.49-1.74,8.17,8.17,0,0,1-.76-1.8A7.33,7.33,0,0,1,113.28,36Z"/><path class="cls-6" d="M164.2,35.44a8.25,8.25,0,0,1,.55-2.93,7.41,7.41,0,0,1,1.09-1.94,6.75,6.75,0,0,1,1.2-1.29,6.41,6.41,0,0,1,1.87-1.13c.34-.12.67-.27,1-.38a4.09,4.09,0,0,1,.84-.21,15.27,15.27,0,0,1,2.86,0,6.37,6.37,0,0,1,1.15.32c.63.18,1.17.57,1.78.8l.06,0a8.61,8.61,0,0,1,1.81,1.7,5.37,5.37,0,0,1,1,1.72c.07.32,0,.47-.35.56a3,3,0,0,0-.95.55,2.78,2.78,0,0,0-1,1.6,2.7,2.7,0,0,0,.71,2.54,2.43,2.43,0,0,0,1.34.83c.29.06.37.41.19.78a12.13,12.13,0,0,1-.74,1.2,8.2,8.2,0,0,1-1.47,1.57,5.76,5.76,0,0,1-1.73,1c-.35.15-.73.24-1.08.42a2.06,2.06,0,0,1-.66.15,7.29,7.29,0,0,1-2.06.15,8.77,8.77,0,0,1-2.77-.76,8.6,8.6,0,0,1-1.1-.54,7,7,0,0,1-.85-.67l-.82-.82a5.82,5.82,0,0,1-1.3-2.21,6.92,6.92,0,0,1-.41-1.31A5.22,5.22,0,0,1,164.2,35.44Z"/><path class="cls-7" d="M113.54,86.38a2.21,2.21,0,0,1,.32-1.11,11,11,0,0,1,.66-1.22,7.52,7.52,0,0,1,2.63-2.48,7.81,7.81,0,0,1,2.33-.92,4,4,0,0,1,.49,0,17.57,17.57,0,0,1,2.33,0,4.31,4.31,0,0,1,2,.53,2.53,2.53,0,0,1,.67.34,3.39,3.39,0,0,1,1.27.78,7.87,7.87,0,0,1,2.11,2.63c.18.38.21.61-.3.78a2.6,2.6,0,0,0-1.7,1.52s-.07,0-.11.06a3,3,0,0,1-.14.47h0a3.57,3.57,0,0,0,0,1.53c.18.07.11.25.16.37a2.87,2.87,0,0,0,1.93,1.63c.21.05.32.17.25.41a2.53,2.53,0,0,1-.49.91,3.66,3.66,0,0,0-.2.4h0a1.37,1.37,0,0,0-.27.34,3,3,0,0,1-.68.83,7.74,7.74,0,0,1-2.05,1.44,7.89,7.89,0,0,1-4.08.83,7.74,7.74,0,0,1-2.21-.46,8.36,8.36,0,0,1-1.49-.74,7.05,7.05,0,0,1-3.16-3.77,1.15,1.15,0,0,0-.06-.12c0-.27-.18-.52-.2-.8-.2-.19-.11-.44-.13-.66a9.44,9.44,0,0,1-.1-2,1,1,0,0,0,0-.42v-.07a1.12,1.12,0,0,0,.16-.62A1,1,0,0,1,113.54,86.38Z"/><path class="cls-26" d="M113.27,87.45a.2.2,0,0,1,.06.18,18.6,18.6,0,0,0,.07,2.21,1.67,1.67,0,0,1-.13-.72C113.27,88.56,113.27,88,113.27,87.45Z"/><path class="cls-27" d="M122.29,80.62H120c.08-.09.18-.06.28-.06H122C122.11,80.55,122.22,80.52,122.29,80.62Z"/><path class="cls-28" d="M126.07,89.24a2.36,2.36,0,0,1,0-1.53A8.73,8.73,0,0,0,126.07,89.24Z"/><path class="cls-26" d="M113.54,86.38c-.11.33,0,.72-.26,1C113.42,87.06,113.32,86.68,113.54,86.38Z"/><path class="cls-28" d="M113.53,90.5a2,2,0,0,1,.2.8A1.6,1.6,0,0,1,113.53,90.5Z"/><path class="cls-23" d="M124.95,81.48a3.16,3.16,0,0,1-.67-.34A.88.88,0,0,1,124.95,81.48Z"/><path class="cls-28" d="M126.07,87.71a.91.91,0,0,1,.14-.47C126.2,87.42,126.22,87.59,126.07,87.71Z"/><path class="cls-29" d="M127.73,93a.5.5,0,0,1,.2-.4A.57.57,0,0,1,127.73,93Z"/><path class="cls-29" d="M127.46,93.29a.39.39,0,0,1,.27-.34A.65.65,0,0,1,127.46,93.29Z"/><path class="cls-15" d="M166.73,88.83a4.84,4.84,0,0,1,1.2-3.23,7.54,7.54,0,0,1,2.17-1.72.18.18,0,0,1,.24,0c.12.09.05.2,0,.26a5.1,5.1,0,0,0-.82,1.36,4.84,4.84,0,0,0-.41,1.28,11.58,11.58,0,0,0-.14,2.89,6.09,6.09,0,0,0,.39,1.88,4.3,4.3,0,0,0,1,1.84c.06.06,0,.12,0,.17a.19.19,0,0,1-.26.06c-.28-.15-.58-.28-.84-.46a5.84,5.84,0,0,1-2.09-2.39A3.82,3.82,0,0,1,166.73,88.83Z"/><path class="cls-15" d="M115.78,36.12a4.61,4.61,0,0,1,.88-2.69,6.8,6.8,0,0,1,.77-1,9.24,9.24,0,0,1,1.76-1.21.14.14,0,0,1,.2,0c.08.1,0,.19,0,.26a3.84,3.84,0,0,0-.69,1.09,6.67,6.67,0,0,0-.61,2.51A11.11,11.11,0,0,0,118,37a9.6,9.6,0,0,0,.63,2.55,4.54,4.54,0,0,0,.7,1.13c.06.08.1.15,0,.24s-.13.06-.23,0A5.89,5.89,0,0,1,117,39.27a5.41,5.41,0,0,1-1-1.92A4.29,4.29,0,0,1,115.78,36.12Z"/><path class="cls-15" d="M168.91,35.13v.93c.08.26,0,.53.06.79s.19.76.26,1.14a2.45,2.45,0,0,0,.17.52,3.54,3.54,0,0,0,.87,1.52c.08.07.14.16.06.26s-.16,0-.25,0-.38-.17-.56-.26a5.12,5.12,0,0,1-1.62-1.34,7.09,7.09,0,0,1-1.11-2.17,1.08,1.08,0,0,1,0-.3,6.31,6.31,0,0,1,0-1.32,3.85,3.85,0,0,1,.67-1.76c.21-.27.36-.6.57-.89a5.45,5.45,0,0,1,.67-.67c.33-.32.78-.42,1.08-.76.1-.12.29-.09.4-.21s.13,0,.16.06,0,.17-.06.23a3.53,3.53,0,0,0-.79,1.32,6.73,6.73,0,0,0-.45,1.65,1.53,1.53,0,0,1-.07.22C168.88,34.41,169,34.78,168.91,35.13Z"/><path class="cls-30" d="M166.78,34.86q0,.66,0,1.32A2.84,2.84,0,0,1,166.78,34.86Z"/><path class="cls-25" d="M168.91,35.13a3.45,3.45,0,0,1,.06-1.06A3.73,3.73,0,0,1,168.91,35.13Z"/><path class="cls-25" d="M169,36.85c-.14-.26,0-.53-.06-.79C169,36.31,168.94,36.59,169,36.85Z"/><path class="cls-15" d="M118.24,86.19c-.23.25-.07.58-.2.86a20,20,0,0,0,0,2,2.65,2.65,0,0,0,0,.79,6.66,6.66,0,0,0,1.15,3,.61.61,0,0,0,.24.21c0,.31-.18.38-.46.19a6,6,0,0,1-2.7-2.55,14.12,14.12,0,0,1-.55-1.42,9.34,9.34,0,0,1,0-1.72,8.36,8.36,0,0,1,.72-1.66,6.89,6.89,0,0,0,.6-.93c.22-.15.37-.39.6-.53l1.42-.93c.11-.08.19,0,.27,0s.07.17,0,.26c-.17.32-.49.54-.6.89s-.33.49-.32.81A1.54,1.54,0,0,0,118.24,86.19Z"/><path class="cls-31" d="M118,89.84c-.07-.05-.07-.13-.07-.21q0-1.19,0-2.37c0-.08,0-.16.07-.21Z"/><path class="cls-32" d="M115.73,87.58V89.3A4.56,4.56,0,0,1,115.73,87.58Z"/><path class="cls-33" d="M117.65,84.47c-.19.19-.33.44-.6.53C117.23,84.79,117.37,84.55,117.65,84.47Z"/><path class="cls-23" d="M119,93.28c.23.13.4.09.46-.19.15.15,0,.25-.09.3S119,93.51,119,93.28Z"/><path class="cls-17" d="M118.24,86.19a.74.74,0,0,1,.2-.67Z"/><path class="cls-34" d="M293.33,101.44c-.25.1-.18.37-.24.55a3.55,3.55,0,0,1-1.19,1.53,2.72,2.72,0,0,1-1.75.63q-14,0-28.07,0a2.16,2.16,0,0,1-1.29-.42,4.14,4.14,0,0,1-1.51-1.68,2.59,2.59,0,0,1-.24-1c0-7.48-.1-15,0-22.44,0-1.67,0-3.33,0-5,0-.57,0-.57.56-.57,1.71,0,3.42,0,5.13,0,7.46-.07,14.92-.07,22.37,0,.83,0,1.67,0,2.5.06s1.44-.11,2.16-.08a9.14,9.14,0,0,1,1.56.14Z"/><path class="cls-35" d="M293.33,48.52c-.06,0-.11,0-.12.09a3.63,3.63,0,0,1-2,2.39,2.52,2.52,0,0,1-1.19.15c-4.27,0-8.53.05-12.8.05-5,0-9.92,0-14.87,0a3.21,3.21,0,0,1-3.17-2.35,4,4,0,0,1-.12-1.07c-.1-8.07-.08-16.15,0-24.22,0-1,0-2,0-3.06,0-.28.12-.37.37-.36h.07q14.22-.1,28.43,0c.62,0,1.25.07,1.87,0s1.42-.06,2.13-.06a7.06,7.06,0,0,1,1.43.14Z"/><path class="cls-9" d="M211.78,9.29V9.16h23.69a.11.11,0,0,1,0,.17.87.87,0,0,1-.42.05H212.24C212.08,9.39,211.91,9.43,211.78,9.29Z"/><path class="cls-9" d="M262.33,9.23s0,0,0-.06H286a.08.08,0,0,1,0,.11,1,1,0,0,1-.48.06H262.86C262.68,9.33,262.48,9.37,262.33,9.23Z"/><path class="cls-36" d="M235.47,9.3V9.16h2.24a.14.14,0,0,1,0,.17.24.24,0,0,1-.16.1,9.79,9.79,0,0,1-2,0A.08.08,0,0,1,235.47,9.3Z"/><path class="cls-9" d="M293.33,71.56h-.08a.61.61,0,0,1-.09-.44q0-2.84,0-5.69a.61.61,0,0,1,.09-.44h.08Z"/><path class="cls-9" d="M293.25,12.07h.08v6.58h-.08a.61.61,0,0,1-.09-.44q0-2.84,0-5.69A.62.62,0,0,1,293.25,12.07Z"/><path class="cls-15" d="M286,9.23V9.16h2.24a.12.12,0,0,1,0,.12.29.29,0,0,1-.23.1c-.59,0-1.18,0-1.77,0C286.17,9.38,286,9.38,286,9.23Z"/><path class="cls-37" d="M237.71,9.29V9.16h1.71v.13a.31.31,0,0,1-.24.1q-.62,0-1.25,0A.31.31,0,0,1,237.71,9.29Z"/><path class="cls-13" d="M288.27,9.24V9.16H290s0,0,0,.06a.3.3,0,0,1-.23.1c-.42,0-.85,0-1.27,0A.31.31,0,0,1,288.27,9.24Z"/><path class="cls-38" d="M225.5,104.14c-4.67,0-9.34,0-14,0a2.56,2.56,0,0,1-1.44-.62,3.56,3.56,0,0,1-1.34-1.73,2.45,2.45,0,0,1-.15-.86c-.12-9.12,0-18.25-.06-27.37,0-.47.08-.56.58-.56,2,0,4,0,6.05,0,6.39-.1,12.79,0,19.18,0,1.45,0,2.9,0,4.34.07,1,.07,1.89-.15,2.84-.1,1.23.06,1.23,0,1.25,1.22.12,7.35.05,14.69,0,22,0,1.63,0,3.27-.05,4.9a2.48,2.48,0,0,1-.56,1.43,4.13,4.13,0,0,1-1.84,1.46,3,3,0,0,1-1.05.15Z"/><path class="cls-39" d="M225.37,51.16H211.45a1.47,1.47,0,0,1-.81-.2A4.34,4.34,0,0,1,208.77,49a4,4,0,0,1-.2-1.45c0-.8,0-1.6,0-2.4-.11-8.17,0-16.34-.06-24.51,0-.45.06-.52.52-.55h.33c2.49,0,5,0,7.47,0,5.23-.07,10.46,0,15.69,0,2,0,4.08,0,6.12.07,1,.05,1.91-.18,2.87-.09.37,0,.74.06,1.1.13.16,0,.2.09.19.23s0,.09,0,.13c0,7,0,14,0,20.93,0,2.15,0,4.3-.05,6.45a3.45,3.45,0,0,1-1.54,2.68,3,3,0,0,1-1.94.58H225.37Z"/><path class="cls-35" d="M288.27,9.24l1.71,0c.28.19.62.14.92.25a4.06,4.06,0,0,1,1.74,1.3,2.44,2.44,0,0,1,.5,1.1c0,.07,0,.15.11.19q0,3.28,0,6.57a.66.66,0,0,1-.38.07q-14.18.12-28.36,0l-4.94,0c-.47,0-.47,0-.49-.48a58.35,58.35,0,0,1,0-5.85,3.39,3.39,0,0,1,1.5-2.43,2.73,2.73,0,0,1,1.45-.61,1,1,0,0,0,.27-.12H286a.27.27,0,0,0,.24.07h1.8C288.13,9.3,288.22,9.32,288.27,9.24Z"/><path class="cls-34" d="M293.25,65q0,3.28,0,6.57a.87.87,0,0,1-.38.08q-12.63.1-25.27,0l-7.83,0h-.36c-.21,0-.32-.09-.33-.34-.08-1.86,0-3.73,0-5.59A3.58,3.58,0,0,1,261,62.63a3.64,3.64,0,0,1,2-.47q11.17,0,22.34,0a18,18,0,0,0,2.45.1,8.19,8.19,0,0,1,1.92-.11,4,4,0,0,1,3.24,2C293.06,64.44,293,64.76,293.25,65Z"/><path class="cls-38" d="M239.16,62.14a4.13,4.13,0,0,1,3.15,2,2.52,2.52,0,0,1,.41,1.5,7.71,7.71,0,0,1,0,1q0,1.73,0,3.45a6.05,6.05,0,0,1,0,.88c0,.65,0,.66-.68.66-2.07,0-4.15,0-6.22,0-6.67.1-13.33.05-20,0l-6.77,0c-.44,0-.48,0-.51-.47a41.51,41.51,0,0,1,0-4.7,10.53,10.53,0,0,1,.06-1.41,3.16,3.16,0,0,1,.71-1.45,3.55,3.55,0,0,1,2.31-1.36,10.23,10.23,0,0,1,1.4-.1H234.3c1,0,1.89.19,2.85.14.29,0,.54-.13.82-.15A5.39,5.39,0,0,1,239.16,62.14Z"/><path class="cls-40" d="M237.71,9.29h1.72a2.71,2.71,0,0,0,.7.15,3.94,3.94,0,0,1,2.13,1.69,2.74,2.74,0,0,1,.46,1.46c.06,1.4.05,2.81,0,4.21,0,.54,0,1.07-.05,1.61a.25.25,0,0,1-.28.29h-.13c-9.12.08-18.25.08-27.37,0-1.94,0-3.88,0-5.82,0-.53,0-.53,0-.56-.55-.09-1.36-.06-2.72,0-4.08a9.36,9.36,0,0,1,.11-2,3.73,3.73,0,0,1,1.85-2.38,2.39,2.39,0,0,1,1.24-.35l.49,0h22.92a.81.81,0,0,1,.36,0h1.88A.54.54,0,0,0,237.71,9.29Z"/><path class="cls-41" d="M235.48,9.36H212.24c-.18,0-.36.1-.53,0l.06-.06h23.69Z"/><path class="cls-42" d="M242.72,70.11V66.62s0,0,.06,0v3.48S242.74,70.14,242.72,70.11Z"/><path class="cls-43" d="M239.16,62.14H238A2.39,2.39,0,0,1,239.16,62.14Z"/><path class="cls-44" d="M242.77,66.63h-.06v-1A3.11,3.11,0,0,1,242.77,66.63Z"/><path class="cls-45" d="M242.72,70.11h.06a2.33,2.33,0,0,1-.06.86Z"/><path class="cls-15" d="M265.53,88.61a10.68,10.68,0,0,1,11.13-10.67,10.35,10.35,0,0,1,5.92,2.16,10.63,10.63,0,0,1,4.26,8.52,9.87,9.87,0,0,1-1.61,5.52,10.41,10.41,0,0,1-9.58,5.1,9.93,9.93,0,0,1-6.89-3A10.26,10.26,0,0,1,265.53,88.61Z"/><path class="cls-15" d="M265.5,34.45c0-1.87,1.18-4.39,3.27-6.43a10.21,10.21,0,0,1,7.9-3,10.38,10.38,0,0,1,5.92,2.16,10.55,10.55,0,0,1,4.25,8.53,10.18,10.18,0,0,1-2.24,6.46,10.43,10.43,0,0,1-8.88,4.17,9.88,9.88,0,0,1-6-2.17C266.94,42,265.55,39.14,265.5,34.45Z"/><path class="cls-15" d="M225.47,77.89a10.72,10.72,0,1,1-.34,21.42,10.21,10.21,0,0,1-7.48-3.52,10.66,10.66,0,0,1-2.7-8.17,10.74,10.74,0,0,1,10.52-9.73Z"/><path class="cls-15" d="M214.93,35.36A9.7,9.7,0,0,1,218,28.08a10.29,10.29,0,0,1,8-3.12,10.74,10.74,0,0,1,10.3,10.77,10.26,10.26,0,0,1-2.18,6.42,10.47,10.47,0,0,1-9,4.26,10,10,0,0,1-6.59-2.56A10.57,10.57,0,0,1,214.93,35.36Z"/><path class="cls-15" d="M267.67,15.49h-2.9a.85.85,0,0,1-.88-.81,7.49,7.49,0,0,1,0-1.32.74.74,0,0,1,.79-.78h2.4c.8,0,1.6-.07,2.39,0a5.5,5.5,0,0,1,1.43.11.62.62,0,0,1,.49.57,14.09,14.09,0,0,1,0,1.58.78.78,0,0,1-.79.7Z"/><path class="cls-15" d="M282.4,14a1.62,1.62,0,0,1-1.63,1.62,1.64,1.64,0,0,1-1.54-1.53,1.51,1.51,0,0,1,1.56-1.64A1.62,1.62,0,0,1,282.4,14Z"/><path class="cls-15" d="M288.53,14a1.55,1.55,0,0,1-1.52,1.6,1.7,1.7,0,0,1-1.58-1.5,1.77,1.77,0,0,1,1.61-1.7A1.62,1.62,0,0,1,288.53,14Z"/><path class="cls-15" d="M267.66,68.41h-2.89c-.53,0-.76-.31-.88-.82a8.24,8.24,0,0,1,0-1.45c0-.31.36-.63.7-.65h.66l4.24,0a4.34,4.34,0,0,1,1.43.11.63.63,0,0,1,.48.58c0,.52,0,1.05,0,1.58a.8.8,0,0,1-.78.69Z"/><path class="cls-15" d="M282.4,66.92a1.61,1.61,0,0,1-1.65,1.61A1.66,1.66,0,0,1,279.22,67a1.53,1.53,0,0,1,1.57-1.65A1.63,1.63,0,0,1,282.4,66.92Z"/><path class="cls-15" d="M288.53,66.93a1.55,1.55,0,0,1-1.54,1.6A1.69,1.69,0,0,1,285.42,67,1.8,1.8,0,0,1,287,65.33,1.61,1.61,0,0,1,288.53,66.93Z"/><path class="cls-15" d="M217.14,68.4h-3a.75.75,0,0,1-.78-.73c0-.18-.15-.31-.14-.5a11.54,11.54,0,0,0,.15-1.19c0-.21.47-.54.71-.54,2,0,3.95,0,5.92,0a.85.85,0,0,1,.92.95c0,.41,0,.81,0,1.22a.8.8,0,0,1-.79.79Z"/><path class="cls-15" d="M231.85,67a1.53,1.53,0,0,1-1.66,1.56,1.6,1.6,0,0,1,.05-3.21A1.68,1.68,0,0,1,231.85,67Z"/><path class="cls-15" d="M234.88,66.94c-.12-.82,1-1.6,1.55-1.62A1.69,1.69,0,0,1,238,67.25a1.64,1.64,0,0,1-1.58,1.29A1.58,1.58,0,0,1,234.88,66.94Z"/><path class="cls-15" d="M217.14,15.49h-3a.8.8,0,0,1-.79-.74c0-.18-.14-.31-.14-.5a11.09,11.09,0,0,0,.15-1.19c0-.21.48-.54.7-.54,2,0,4,0,6,0a.83.83,0,0,1,.9.89c0,.44,0,.88,0,1.32a.81.81,0,0,1-.76.75h-3Z"/><path class="cls-15" d="M231.86,14.05a1.53,1.53,0,0,1-1.65,1.56,1.65,1.65,0,0,1-1.56-1.53,1.61,1.61,0,0,1,1.62-1.69A1.68,1.68,0,0,1,231.86,14.05Z"/><path class="cls-15" d="M234.87,14c-.11-.8,1-1.6,1.57-1.61A1.7,1.7,0,0,1,238,14.33a1.66,1.66,0,0,1-1.62,1.3A1.59,1.59,0,0,1,234.87,14Z"/><path class="cls-46" d="M208.84,18.64a.59.59,0,0,1,.52-.13H242c.55,0,.49.06.49-.49q0-2.71,0-5.43a.64.64,0,0,1,0-.36c.14,0,.09.13.09.2,0,1.94,0,3.88,0,5.82,0,.26-.1.39-.37.38H208.84Z"/><path class="cls-34" d="M276.17,80.79a6.32,6.32,0,0,1,3,.49,8,8,0,0,1,3.13,2.3,9.35,9.35,0,0,1,1,1.56c.19.35,0,.56-.35.71a2.91,2.91,0,0,0-1.66,1.45,4.53,4.53,0,0,0-.33,1.29,2.12,2.12,0,0,0,.24,1.15,2.73,2.73,0,0,0,1.32,1.44,3,3,0,0,0,.45.19c.41.12.5.31.33.69a7.62,7.62,0,0,1-2.73,3.15,8.52,8.52,0,0,1-4.89,1.29,8,8,0,0,1-2.21-.49,8.34,8.34,0,0,1-3-1.93,7.2,7.2,0,0,1-1.58-2.48,8.51,8.51,0,0,1-.51-3.94,7.17,7.17,0,0,1,.66-2.37,8.12,8.12,0,0,1,2.15-2.82,7.6,7.6,0,0,1,1.48-.92A6.75,6.75,0,0,1,276.17,80.79Z"/><path class="cls-35" d="M268.33,35.58a5.09,5.09,0,0,1,.28-2.2,7.62,7.62,0,0,1,1.29-2.51,7.89,7.89,0,0,1,7.21-3,7.18,7.18,0,0,1,3.38,1.19,6.93,6.93,0,0,1,1.95,1.84c.29.4.54.82.78,1.25s.09.6-.33.77a2.89,2.89,0,0,0-1.64,1.45,4.72,4.72,0,0,0-.33,1.28,2.15,2.15,0,0,0,.25,1.17,2.71,2.71,0,0,0,1,1.23,2.46,2.46,0,0,0,.84.39c.27.06.37.2.3.47a4.24,4.24,0,0,1-.64,1.24,8.06,8.06,0,0,1-1.45,1.6,7.93,7.93,0,0,1-1.87,1.13,8.64,8.64,0,0,1-2.22.62,8.07,8.07,0,0,1-5.27-1.19,7.71,7.71,0,0,1-2.15-2,8.36,8.36,0,0,1-1.1-2.29,4.46,4.46,0,0,1-.19-.91A6.69,6.69,0,0,1,268.33,35.58Z"/><path class="cls-38" d="M217.77,88.58a7.6,7.6,0,0,1,.54-2.89c.13-.36.33-.69.46-1.06a2.93,2.93,0,0,1,.36-.52,6.07,6.07,0,0,1,1.45-1.61,13.79,13.79,0,0,1,1.58-1,6.09,6.09,0,0,1,2-.67,9,9,0,0,1,2.41-.06,7.26,7.26,0,0,1,2.2.56,7.77,7.77,0,0,1,2.84,2,7.18,7.18,0,0,1,1.15,1.79c.15.35,0,.51-.37.65a2.89,2.89,0,0,0-1.61,1.38,4.94,4.94,0,0,0-.37,1.32,2.13,2.13,0,0,0,.26,1.18,2.62,2.62,0,0,0,.73,1.05,2.36,2.36,0,0,0,1.13.6.33.33,0,0,1,.28.43,2.41,2.41,0,0,1-.35.79A9.27,9.27,0,0,1,231,94.41a8,8,0,0,1-2.58,1.53,8.59,8.59,0,0,1-1.84.46,5,5,0,0,1-1.32.08A9,9,0,0,1,223,96c-.58-.23-1.13-.52-1.69-.78a2.36,2.36,0,0,1-.67-.52,11.84,11.84,0,0,1-1.47-1.55,7.78,7.78,0,0,1-.66-1.2,11.36,11.36,0,0,1-.49-1.39,7.22,7.22,0,0,0-.17-1C217.68,89.23,217.81,88.87,217.77,88.58Z"/><path class="cls-40" d="M231.26,41.16a6.17,6.17,0,0,1-2.47,1.7,7.41,7.41,0,0,1-2.22.63,5.87,5.87,0,0,1-1.26.09,9.16,9.16,0,0,1-2.33-.48,17.41,17.41,0,0,1-1.69-.79,5.05,5.05,0,0,1-.79-.59c-.24-.2-.43-.47-.67-.68a5.11,5.11,0,0,1-1.34-1.94,8.7,8.7,0,0,1-.64-2.25,10.42,10.42,0,0,1-.08-1.75,7.23,7.23,0,0,1,.5-2.25c.13-.36.33-.7.46-1.06a3.84,3.84,0,0,1,.39-.57,5.76,5.76,0,0,1,1.46-1.64,9.42,9.42,0,0,1,2-1.19,7.49,7.49,0,0,1,1.17-.35,8.91,8.91,0,0,1,2.33-.17,6.92,6.92,0,0,1,2.59.59,7.8,7.8,0,0,1,3,2.19,6.16,6.16,0,0,1,1,1.68c.12.32,0,.53-.36.59a2,2,0,0,0-.86.49,3.12,3.12,0,0,0-1.06,1.86,2.74,2.74,0,0,0,.47,2.09,2.23,2.23,0,0,0,1.54,1.11c.24,0,.38.18.29.47a4,4,0,0,1-.89,1.49A8.73,8.73,0,0,1,231.26,41.16Z"/><path class="cls-47" d="M231.26,41.16a2,2,0,0,1,.58-.73C231.81,40.8,231.47,40.92,231.26,41.16Z"/><path class="cls-15" d="M274.18,83.67a.28.28,0,0,1,.23.12c.06.1,0,.19-.06.27a4.88,4.88,0,0,0-.71,1.11,8.56,8.56,0,0,0-.53,1.71,11.52,11.52,0,0,0-.11,2.61,6.07,6.07,0,0,0,.39,1.86,4.25,4.25,0,0,0,1,1.84.17.17,0,0,1,0,.24.22.22,0,0,1-.29.06,6.25,6.25,0,0,1-2.57-2.16,5,5,0,0,1-.76-3.52,3.22,3.22,0,0,1,.43-1.23A7.79,7.79,0,0,1,272.3,85a14.33,14.33,0,0,1,1.8-1.28Z"/><path class="cls-15" d="M270.75,35.68a4.08,4.08,0,0,1,.67-2.38,5.48,5.48,0,0,1,1.65-1.85,9.09,9.09,0,0,0,1-.66c.09-.08.19,0,.27,0s.08.17,0,.26a7.48,7.48,0,0,0-.62.9,8.73,8.73,0,0,0-.66,2,13.41,13.41,0,0,0-.09,2.84,4.77,4.77,0,0,0,.32,1.44,5.41,5.41,0,0,0,.85,1.77c.09.11.37.19.21.41s-.35,0-.51,0A5.6,5.6,0,0,1,271.3,38,4.08,4.08,0,0,1,270.75,35.68Z"/><path class="cls-15" d="M223.68,83.67a.18.18,0,0,1,.19.11.29.29,0,0,1-.07.33,4,4,0,0,0-.79,1.33,9,9,0,0,0-.56,4.28,3.24,3.24,0,0,0,.2.91,16.93,16.93,0,0,0,.53,1.65,3.08,3.08,0,0,0,.55.75c.11.14.23.27.11.43s-.25,0-.39,0a6.87,6.87,0,0,1-1.21-.71,6.28,6.28,0,0,1-1.07-1.11,7.91,7.91,0,0,1-.73-1.33,2.2,2.2,0,0,1-.24-1c0-.36,0-.72,0-1.09a3.4,3.4,0,0,1,.67-2c.2-.27.37-.57.55-.86a3.82,3.82,0,0,1,1.42-1.2c.23-.13.38-.37.66-.43A.82.82,0,0,1,223.68,83.67Z"/><path class="cls-15" d="M223.67,30.75a.19.19,0,0,1,.21.12.28.28,0,0,1-.05.31,4.15,4.15,0,0,0-.81,1.35,10.41,10.41,0,0,0-.44,1.51,11,11,0,0,0-.12,2.77,4.81,4.81,0,0,0,.2.91,14.45,14.45,0,0,0,.53,1.64,2.9,2.9,0,0,0,.52.73c.06.09.17.14.18.27a.24.24,0,0,1-.08.24.23.23,0,0,1-.25,0,6.61,6.61,0,0,1-2.13-1.54,6.3,6.3,0,0,1-1.11-2,5.2,5.2,0,0,1-.09-2.24,3.24,3.24,0,0,1,.62-1.52,7.28,7.28,0,0,1,1-1.34,3.74,3.74,0,0,1,1.08-.75c.21-.08.34-.31.58-.39A.69.69,0,0,1,223.67,30.75Z"/><path class="cls-34" d="M84.85,101.44c-.25.1-.18.37-.24.55a3.55,3.55,0,0,1-1.19,1.53,2.72,2.72,0,0,1-1.75.63q-14,0-28.07,0a2.16,2.16,0,0,1-1.29-.42,4.14,4.14,0,0,1-1.51-1.68,2.59,2.59,0,0,1-.24-1c0-7.48-.1-15,0-22.44,0-1.67,0-3.33,0-5,0-.57,0-.57.56-.57,1.71,0,3.42,0,5.13,0,7.46-.07,14.92-.07,22.37,0,.83,0,1.67,0,2.5.06s1.44-.11,2.16-.08a9.14,9.14,0,0,1,1.56.14Z"/><path class="cls-35" d="M84.85,48.52c-.06,0-.11,0-.12.09a3.63,3.63,0,0,1-2,2.39,2.52,2.52,0,0,1-1.19.15c-4.27,0-8.53.05-12.8.05-5,0-9.92,0-14.87,0a3.21,3.21,0,0,1-3.17-2.35,4,4,0,0,1-.12-1.07c-.1-8.07-.08-16.15,0-24.22,0-1,0-2,0-3.06,0-.28.12-.37.37-.36H51Q65.2,20,79.42,20c.62,0,1.25.07,1.87,0S82.71,20,83.42,20a7.06,7.06,0,0,1,1.43.14Z"/><path class="cls-9" d="M3.3,9.29V9.16H27a.11.11,0,0,1,0,.17.87.87,0,0,1-.42.05H3.77C3.61,9.39,3.43,9.43,3.3,9.29Z"/><path class="cls-9" d="M53.85,9.23s0,0,0-.06H77.54a.08.08,0,0,1,0,.11,1,1,0,0,1-.48.06H54.38C54.2,9.33,54,9.37,53.85,9.23Z"/><path class="cls-36" d="M27,9.3V9.16h2.24a.14.14,0,0,1,0,.17.24.24,0,0,1-.16.1,9.79,9.79,0,0,1-2,0A.08.08,0,0,1,27,9.3Z"/><path class="cls-9" d="M84.85,71.56h-.08a.61.61,0,0,1-.09-.44q0-2.84,0-5.69a.61.61,0,0,1,.09-.44h.08Z"/><path class="cls-9" d="M84.77,12.07h.08v6.58h-.08a.61.61,0,0,1-.09-.44q0-2.84,0-5.69A.62.62,0,0,1,84.77,12.07Z"/><path class="cls-15" d="M77.54,9.23V9.16h2.24a.12.12,0,0,1,0,.12.29.29,0,0,1-.23.1c-.59,0-1.18,0-1.77,0C77.69,9.38,77.57,9.38,77.54,9.23Z"/><path class="cls-37" d="M29.23,9.29V9.16h1.71v.13a.31.31,0,0,1-.24.1q-.62,0-1.25,0A.31.31,0,0,1,29.23,9.29Z"/><path class="cls-13" d="M79.79,9.24V9.16h1.71s0,0,0,.06a.3.3,0,0,1-.23.1c-.42,0-.85,0-1.27,0A.31.31,0,0,1,79.79,9.24Z"/><path class="cls-38" d="M17,104.14c-4.67,0-9.34,0-14,0a2.56,2.56,0,0,1-1.44-.62A3.56,3.56,0,0,1,.23,101.8a2.45,2.45,0,0,1-.15-.86C0,91.82,0,82.69,0,73.57c0-.47.08-.56.58-.56,2,0,4,0,6.05,0,6.39-.1,12.79,0,19.18,0,1.45,0,2.9,0,4.34.07,1,.07,1.89-.15,2.84-.1,1.23.06,1.23,0,1.25,1.22.12,7.35.05,14.69,0,22,0,1.63,0,3.27-.05,4.9a2.48,2.48,0,0,1-.56,1.43A4.13,4.13,0,0,1,31.83,104a3,3,0,0,1-1.05.15Z"/><path class="cls-39" d="M16.89,51.16H3a1.47,1.47,0,0,1-.81-.2A4.34,4.34,0,0,1,.29,49a4,4,0,0,1-.2-1.45c0-.8,0-1.6,0-2.4C0,37,0,28.82,0,20.65c0-.45.06-.52.52-.55H.86c2.49,0,5,0,7.47,0C13.56,20,18.79,20,24,20c2,0,4.08,0,6.12.07,1,.05,1.91-.18,2.87-.09.37,0,.74.06,1.1.13.16,0,.2.09.19.23s0,.09,0,.13c0,7,0,14,0,20.93,0,2.15,0,4.3-.05,6.45a3.45,3.45,0,0,1-1.54,2.68,3,3,0,0,1-1.94.58H16.89Z"/><path class="cls-35" d="M79.79,9.24l1.71,0c.28.19.62.14.92.25a4.06,4.06,0,0,1,1.74,1.3,2.44,2.44,0,0,1,.5,1.1c0,.07,0,.15.11.19q0,3.28,0,6.57a.66.66,0,0,1-.38.07q-14.18.12-28.36,0l-4.94,0c-.47,0-.47,0-.49-.48a58.35,58.35,0,0,1,0-5.85A3.39,3.39,0,0,1,52.13,10a2.73,2.73,0,0,1,1.45-.61,1,1,0,0,0,.27-.12h23.7a.27.27,0,0,0,.24.07h1.8C79.66,9.3,79.74,9.32,79.79,9.24Z"/><path class="cls-34" d="M84.77,65q0,3.28,0,6.57a.87.87,0,0,1-.38.08q-12.63.1-25.27,0l-7.83,0h-.36c-.21,0-.32-.09-.33-.34-.08-1.86,0-3.73,0-5.59a3.58,3.58,0,0,1,1.91-3.06,3.64,3.64,0,0,1,2-.47q11.17,0,22.34,0a18,18,0,0,0,2.45.1,8.19,8.19,0,0,1,1.92-.11,4,4,0,0,1,3.24,2C84.59,64.44,84.57,64.76,84.77,65Z"/><path class="cls-38" d="M30.68,62.14a4.13,4.13,0,0,1,3.15,2,2.52,2.52,0,0,1,.41,1.5,7.71,7.71,0,0,1,0,1q0,1.73,0,3.45a6.05,6.05,0,0,1,0,.88c0,.65,0,.66-.68.66-2.07,0-4.15,0-6.22,0-6.67.1-13.33.05-20,0l-6.77,0c-.44,0-.48,0-.51-.47a41.51,41.51,0,0,1,0-4.7,10.53,10.53,0,0,1,.06-1.41,3.16,3.16,0,0,1,.71-1.45,3.55,3.55,0,0,1,2.31-1.36,10.23,10.23,0,0,1,1.4-.1H25.83c1,0,1.89.19,2.85.14.29,0,.54-.13.82-.15A5.39,5.39,0,0,1,30.68,62.14Z"/><path class="cls-40" d="M29.23,9.29h1.72a2.71,2.71,0,0,0,.7.15,3.94,3.94,0,0,1,2.13,1.69,2.74,2.74,0,0,1,.46,1.46c.06,1.4.05,2.81,0,4.21,0,.54,0,1.07-.05,1.61a.25.25,0,0,1-.28.29h-.13c-9.12.08-18.25.08-27.37,0-1.94,0-3.88,0-5.82,0-.53,0-.53,0-.56-.55C0,16.8,0,15.44,0,14.08a9.36,9.36,0,0,1,.11-2A3.73,3.73,0,0,1,2,9.7a2.39,2.39,0,0,1,1.24-.35l.49,0H26.65a.81.81,0,0,1,.36,0h1.88A.54.54,0,0,0,29.23,9.29Z"/><path class="cls-41" d="M27,9.36H3.77c-.18,0-.36.1-.53,0l.06-.06H27Z"/><path class="cls-42" d="M34.24,70.11V66.62s0,0,.06,0v3.48S34.26,70.14,34.24,70.11Z"/><path class="cls-43" d="M30.68,62.14H29.5A2.39,2.39,0,0,1,30.68,62.14Z"/><path class="cls-44" d="M34.3,66.63h-.06v-1A3.11,3.11,0,0,1,34.3,66.63Z"/><path class="cls-45" d="M34.24,70.11h.06a2.33,2.33,0,0,1-.06.86Z"/><path class="cls-15" d="M57.05,88.61A10.68,10.68,0,0,1,68.19,77.95a10.35,10.35,0,0,1,5.92,2.16,10.63,10.63,0,0,1,4.26,8.52,9.87,9.87,0,0,1-1.61,5.52,10.41,10.41,0,0,1-9.58,5.1,9.93,9.93,0,0,1-6.89-3A10.26,10.26,0,0,1,57.05,88.61Z"/><path class="cls-15" d="M57,34.45c0-1.87,1.18-4.39,3.27-6.43a10.21,10.21,0,0,1,7.9-3,10.38,10.38,0,0,1,5.92,2.16,10.55,10.55,0,0,1,4.25,8.53,10.18,10.18,0,0,1-2.24,6.46,10.43,10.43,0,0,1-8.88,4.17,9.88,9.88,0,0,1-6-2.17C58.47,42,57.07,39.14,57,34.45Z"/><path class="cls-15" d="M17,77.89a10.5,10.5,0,0,1,7.28,2.72,10.69,10.69,0,0,1,.41,15.6,10.43,10.43,0,0,1-8,3.1,10.21,10.21,0,0,1-7.48-3.52,10.66,10.66,0,0,1-2.7-8.17,10.19,10.19,0,0,1,3.29-6.78A10.17,10.17,0,0,1,17,77.89Z"/><path class="cls-15" d="M6.45,35.36a9.7,9.7,0,0,1,3.12-7.27,10.29,10.29,0,0,1,8-3.12,10.74,10.74,0,0,1,10.3,10.77,10.26,10.26,0,0,1-2.18,6.42,10.47,10.47,0,0,1-9,4.26,10,10,0,0,1-6.59-2.56A10.57,10.57,0,0,1,6.45,35.36Z"/><path class="cls-15" d="M59.19,15.49h-2.9a.85.85,0,0,1-.88-.81,7.49,7.49,0,0,1,0-1.32.74.74,0,0,1,.79-.78h2.4c.8,0,1.6-.07,2.39,0a5.5,5.5,0,0,1,1.43.11.62.62,0,0,1,.49.57,14.09,14.09,0,0,1,0,1.58.78.78,0,0,1-.79.7Z"/><path class="cls-15" d="M73.92,14a1.62,1.62,0,0,1-1.63,1.62,1.64,1.64,0,0,1-1.54-1.53,1.51,1.51,0,0,1,1.56-1.64A1.62,1.62,0,0,1,73.92,14Z"/><path class="cls-15" d="M80.05,14a1.55,1.55,0,0,1-1.52,1.6,1.7,1.7,0,0,1-1.58-1.5,1.77,1.77,0,0,1,1.61-1.7A1.62,1.62,0,0,1,80.05,14Z"/><path class="cls-15" d="M59.18,68.41H56.29c-.53,0-.76-.31-.88-.82a8.24,8.24,0,0,1,0-1.45c0-.31.36-.63.7-.65h.66l4.24,0a4.34,4.34,0,0,1,1.43.11.63.63,0,0,1,.48.58c0,.52,0,1.05,0,1.58a.8.8,0,0,1-.78.69Z"/><path class="cls-15" d="M73.92,66.92a1.61,1.61,0,0,1-1.65,1.61A1.66,1.66,0,0,1,70.74,67a1.53,1.53,0,0,1,1.57-1.65A1.63,1.63,0,0,1,73.92,66.92Z"/><path class="cls-15" d="M80.05,66.93a1.55,1.55,0,0,1-1.54,1.6A1.69,1.69,0,0,1,76.94,67a1.8,1.8,0,0,1,1.57-1.71A1.61,1.61,0,0,1,80.05,66.93Z"/><path class="cls-15" d="M8.66,68.4h-3a.75.75,0,0,1-.78-.73c0-.18-.15-.31-.14-.5A11.54,11.54,0,0,0,4.9,66c0-.21.47-.54.71-.54,2,0,3.95,0,5.92,0a.85.85,0,0,1,.92.95c0,.41,0,.81,0,1.22a.8.8,0,0,1-.79.79Z"/><path class="cls-15" d="M23.38,67a1.53,1.53,0,0,1-1.66,1.56,1.6,1.6,0,0,1,.05-3.21A1.68,1.68,0,0,1,23.38,67Z"/><path class="cls-15" d="M26.4,66.94c-.12-.82,1-1.6,1.55-1.62a1.69,1.69,0,0,1,1.58,1.93A1.64,1.64,0,0,1,28,68.54,1.58,1.58,0,0,1,26.4,66.94Z"/><path class="cls-15" d="M8.66,15.49h-3a.8.8,0,0,1-.79-.74c0-.18-.14-.31-.14-.5a11.09,11.09,0,0,0,.15-1.19c0-.21.48-.54.7-.54,2,0,4,0,6,0a.83.83,0,0,1,.9.89c0,.44,0,.88,0,1.32a.81.81,0,0,1-.76.75h-3Z"/><path class="cls-15" d="M23.38,14.05a1.53,1.53,0,0,1-1.65,1.56,1.65,1.65,0,0,1-1.56-1.53,1.61,1.61,0,0,1,1.62-1.69A1.68,1.68,0,0,1,23.38,14.05Z"/><path class="cls-15" d="M26.4,14c-.11-.8,1-1.6,1.57-1.61a1.7,1.7,0,0,1,1.59,1.93,1.66,1.66,0,0,1-1.62,1.3A1.59,1.59,0,0,1,26.4,14Z"/><path class="cls-46" d="M.36,18.64a.59.59,0,0,1,.52-.13h32.6c.55,0,.49.06.49-.49q0-2.71,0-5.43a.64.64,0,0,1,0-.36c.14,0,.09.13.09.2,0,1.94,0,3.88,0,5.82,0,.26-.1.39-.37.38H.36Z"/><path class="cls-34" d="M67.69,80.79a6.32,6.32,0,0,1,3,.49,8,8,0,0,1,3.13,2.3,9.35,9.35,0,0,1,1,1.56c.19.35,0,.56-.35.71a2.91,2.91,0,0,0-1.66,1.45,4.53,4.53,0,0,0-.33,1.29,2.12,2.12,0,0,0,.24,1.15A2.73,2.73,0,0,0,74,91.17a3,3,0,0,0,.45.19c.41.12.5.31.33.69a7.62,7.62,0,0,1-2.73,3.15,8.52,8.52,0,0,1-4.89,1.29A8,8,0,0,1,65,96a8.34,8.34,0,0,1-3-1.93,7.2,7.2,0,0,1-1.58-2.48,8.51,8.51,0,0,1-.51-3.94,7.17,7.17,0,0,1,.66-2.37,8.12,8.12,0,0,1,2.15-2.82,7.6,7.6,0,0,1,1.48-.92A6.75,6.75,0,0,1,67.69,80.79Z"/><path class="cls-35" d="M59.86,35.58a5.09,5.09,0,0,1,.28-2.2,7.62,7.62,0,0,1,1.29-2.51,7.89,7.89,0,0,1,7.21-3A7.18,7.18,0,0,1,72,29.08,6.93,6.93,0,0,1,74,30.92c.29.4.54.82.78,1.25s.09.6-.33.77a2.89,2.89,0,0,0-1.64,1.45,4.72,4.72,0,0,0-.33,1.28,2.15,2.15,0,0,0,.25,1.17,2.71,2.71,0,0,0,1,1.23,2.46,2.46,0,0,0,.84.39c.27.06.37.2.3.47a4.24,4.24,0,0,1-.64,1.24,8.06,8.06,0,0,1-1.45,1.6,7.93,7.93,0,0,1-1.87,1.13,8.64,8.64,0,0,1-2.22.62,8.07,8.07,0,0,1-5.27-1.19,7.71,7.71,0,0,1-2.15-2A8.36,8.36,0,0,1,60.14,38a4.46,4.46,0,0,1-.19-.91A6.69,6.69,0,0,1,59.86,35.58Z"/><path class="cls-38" d="M9.29,88.58a7.6,7.6,0,0,1,.54-2.89c.13-.36.33-.69.46-1.06a2.93,2.93,0,0,1,.36-.52,6.07,6.07,0,0,1,1.45-1.61,13.79,13.79,0,0,1,1.58-1,6.09,6.09,0,0,1,2-.67A9,9,0,0,1,18,80.81a7.26,7.26,0,0,1,2.2.56,7.77,7.77,0,0,1,2.84,2,7.18,7.18,0,0,1,1.15,1.79c.15.35,0,.51-.37.65a2.89,2.89,0,0,0-1.61,1.38,4.94,4.94,0,0,0-.37,1.32,2.13,2.13,0,0,0,.26,1.18,2.62,2.62,0,0,0,.73,1.05,2.36,2.36,0,0,0,1.13.6.33.33,0,0,1,.28.43,2.41,2.41,0,0,1-.35.79,9.27,9.27,0,0,1-1.44,1.81,8,8,0,0,1-2.58,1.53,8.59,8.59,0,0,1-1.84.46,5,5,0,0,1-1.32.08A9,9,0,0,1,14.51,96c-.58-.23-1.13-.52-1.69-.78a2.36,2.36,0,0,1-.67-.52,11.84,11.84,0,0,1-1.47-1.55A7.78,7.78,0,0,1,10,92a11.36,11.36,0,0,1-.49-1.39,7.22,7.22,0,0,0-.17-1C9.2,89.23,9.33,88.87,9.29,88.58Z"/><path class="cls-40" d="M22.79,41.16a6.17,6.17,0,0,1-2.47,1.7,7.41,7.41,0,0,1-2.22.63,5.87,5.87,0,0,1-1.26.09,9.16,9.16,0,0,1-2.33-.48,17.41,17.41,0,0,1-1.69-.79,5.05,5.05,0,0,1-.79-.59c-.24-.2-.43-.47-.67-.68A5.11,5.11,0,0,1,10,39.1a8.7,8.7,0,0,1-.64-2.25,10.42,10.42,0,0,1-.08-1.75,7.23,7.23,0,0,1,.5-2.25c.13-.36.33-.7.46-1.06a3.84,3.84,0,0,1,.39-.57,5.76,5.76,0,0,1,1.46-1.64,9.42,9.42,0,0,1,2-1.19A7.49,7.49,0,0,1,15.33,28a8.91,8.91,0,0,1,2.33-.17,6.92,6.92,0,0,1,2.59.59,7.8,7.8,0,0,1,3,2.19,6.16,6.16,0,0,1,1,1.68c.12.32,0,.53-.36.59a2,2,0,0,0-.86.49A3.12,3.12,0,0,0,22,35.26a2.74,2.74,0,0,0,.47,2.09A2.23,2.23,0,0,0,24,38.47c.24,0,.38.18.29.47a4,4,0,0,1-.89,1.49A8.73,8.73,0,0,1,22.79,41.16Z"/><path class="cls-47" d="M22.79,41.16a2,2,0,0,1,.58-.73C23.33,40.8,23,40.92,22.79,41.16Z"/><path class="cls-15" d="M65.7,83.67a.28.28,0,0,1,.23.12c.06.1,0,.19-.06.27a4.88,4.88,0,0,0-.71,1.11,8.56,8.56,0,0,0-.53,1.71,11.52,11.52,0,0,0-.11,2.61,6.07,6.07,0,0,0,.39,1.86,4.25,4.25,0,0,0,1,1.84.17.17,0,0,1,0,.24.22.22,0,0,1-.29.06A6.25,6.25,0,0,1,63,91.32a5,5,0,0,1-.76-3.52,3.22,3.22,0,0,1,.43-1.23A7.79,7.79,0,0,1,63.82,85a14.33,14.33,0,0,1,1.8-1.28Z"/><path class="cls-15" d="M62.28,35.68a4.08,4.08,0,0,1,.67-2.38,5.48,5.48,0,0,1,1.65-1.85,9.09,9.09,0,0,0,1-.66c.09-.08.19,0,.27,0s.08.17,0,.26a7.48,7.48,0,0,0-.62.9,8.73,8.73,0,0,0-.66,2,13.41,13.41,0,0,0-.09,2.84,4.77,4.77,0,0,0,.32,1.44,5.41,5.41,0,0,0,.85,1.77c.09.11.37.19.21.41s-.35,0-.51,0A5.6,5.6,0,0,1,62.83,38,4.08,4.08,0,0,1,62.28,35.68Z"/><path class="cls-15" d="M15.2,83.67a.18.18,0,0,1,.19.11.29.29,0,0,1-.07.33,4,4,0,0,0-.79,1.33A9,9,0,0,0,14,89.72a3.24,3.24,0,0,0,.2.91,16.93,16.93,0,0,0,.53,1.65,3.08,3.08,0,0,0,.55.75c.11.14.23.27.11.43s-.25,0-.39,0a6.87,6.87,0,0,1-1.21-.71,6.28,6.28,0,0,1-1.07-1.11A7.91,7.91,0,0,1,12,90.26a2.2,2.2,0,0,1-.24-1c0-.36,0-.72,0-1.09a3.4,3.4,0,0,1,.67-2c.2-.27.37-.57.55-.86a3.82,3.82,0,0,1,1.42-1.2c.23-.13.38-.37.66-.43A.82.82,0,0,1,15.2,83.67Z"/><path class="cls-15" d="M15.19,30.75a.19.19,0,0,1,.21.12.28.28,0,0,1-.05.31,4.15,4.15,0,0,0-.81,1.35A10.41,10.41,0,0,0,14.1,34,11,11,0,0,0,14,36.8a4.81,4.81,0,0,0,.2.91,14.45,14.45,0,0,0,.53,1.64,2.9,2.9,0,0,0,.52.73c.06.09.17.14.18.27a.24.24,0,0,1-.08.24.23.23,0,0,1-.25,0A6.61,6.61,0,0,1,13,39.06a6.3,6.3,0,0,1-1.11-2,5.2,5.2,0,0,1-.09-2.24,3.24,3.24,0,0,1,.62-1.52,7.28,7.28,0,0,1,1-1.34,3.74,3.74,0,0,1,1.08-.75c.21-.08.34-.31.58-.39A.69.69,0,0,1,15.19,30.75Z"/><path class="cls-4" d="M549.37,72.93h14.89c.32,0,.63.22,1,.12a11.53,11.53,0,0,1,2.65-.12c.44,0,.59.12.59.55q0,13.91,0,27.82a2.9,2.9,0,0,1-.79,1.89,3.42,3.42,0,0,1-1.33,1,2.18,2.18,0,0,1-.77.2H536.62a1.89,1.89,0,0,1-.9-.32,3.56,3.56,0,0,1-1.7-2,2.82,2.82,0,0,1-.18-.92q0-13.81,0-27.62c0-.42.22-.59.62-.59Z"/><path class="cls-5" d="M498.44,20.21h14.82c.28,0,.51.21.8.14a14.15,14.15,0,0,1,2.88-.13c.48,0,.59.11.59.58q0,13.89,0,27.78a2.9,2.9,0,0,1-.79,1.89,3.44,3.44,0,0,1-1.33,1,2.15,2.15,0,0,1-.77.2H485.69a1.89,1.89,0,0,1-.9-.32,3.55,3.55,0,0,1-1.7-2,2.84,2.84,0,0,1-.18-.92q0-13.79,0-27.59c0-.48.24-.63.65-.63Z"/><path class="cls-6" d="M549.36,19.61h14.75c.39,0,.74.25,1.13.13a11.62,11.62,0,0,1,2.62-.13.56.56,0,0,1,.26,0,.48.48,0,0,1,.34.5q0,13.94,0,27.88a2.83,2.83,0,0,1-.75,1.82,3.32,3.32,0,0,1-1.35,1.06,2.46,2.46,0,0,1-.84.21H536.66a2.18,2.18,0,0,1-1.32-.55A3.43,3.43,0,0,1,534,48.82a3.26,3.26,0,0,1-.21-.88q0-13.91,0-27.82c0-.32.15-.48.5-.51h15Z"/><path class="cls-7" d="M500.1,104.09H485.71a2.25,2.25,0,0,1-1.44-.66,5.5,5.5,0,0,1-.53-.5,3.66,3.66,0,0,1-.79-1.53,5.9,5.9,0,0,1-.1-1.63q0-13.28,0-26.56c0-.47.18-.63.65-.57a2.46,2.46,0,0,0,.3,0q14.57,0,29.14,0a6.57,6.57,0,0,0,1.22.07c.94-.18,1.9.06,2.84-.11.18,0,.46.25.47.43s0,.15,0,.23q0,13.64,0,27.29a3.65,3.65,0,0,1-.47,1.8,4.13,4.13,0,0,1-1.2,1.24,2.89,2.89,0,0,1-1.91.5Z"/><path class="cls-4" d="M551.18,71.79H534.41c-.36,0-.51-.15-.51-.51q0-2.9,0-5.8a3.09,3.09,0,0,1,.48-1.53,3.45,3.45,0,0,1,.76-.9,4.18,4.18,0,0,1,1.64-.84,9.09,9.09,0,0,1,2.55-.15c7.08,0,14.17,0,21.25,0a20,20,0,0,0,2.22.09,9.65,9.65,0,0,1,1.93-.1,4.12,4.12,0,0,1,3,1.5,4.88,4.88,0,0,1,.57,1.17,2.83,2.83,0,0,1,.15,1.19c0,1.77,0,3.54,0,5.3,0,.52-.05.57-.56.57H551.18Z"/><path class="cls-5" d="M517.47,18.88a.28.28,0,0,1-.34.19H483.52c-.21,0-.34-.14-.53-.16s-.06-.08-.06-.13c.1-2,0-4,0-6a3.2,3.2,0,0,1,.86-2.11,4,4,0,0,1,1.75-1.2c.26-.09.57-.09.84-.18a.92.92,0,0,0,.36,0h22.83a.93.93,0,0,0,.36,0,7.69,7.69,0,0,0,2.13.12,1.27,1.27,0,0,0,.32-.07,11.1,11.1,0,0,1,1.24,0,1,1,0,0,0,.36,0,4.8,4.8,0,0,1,1.81.61,3.71,3.71,0,0,1,1.38,1.54c.1.25.17.51.26.76a.42.42,0,0,1,0,.23q0,3.09,0,6.18A.41.41,0,0,1,517.47,18.88Z"/><path class="cls-7" d="M516.8,63.38a2.65,2.65,0,0,1,.53,1.25.65.65,0,0,1,.06.42q0,2.88,0,5.77c0,.5-.05.55-.55.55H483.73c-.24,0-.51.13-.7-.13-.13-.07-.08-.2-.08-.3q0-3,0-5.93a.58.58,0,0,1,.1-.37,2.17,2.17,0,0,1,.62-1.35,3.75,3.75,0,0,1,1.41-1.17c.37-.17.78-.19,1.15-.33a.74.74,0,0,1,.36,0h23.17a.72.72,0,0,1,.36,0,3.56,3.56,0,0,0,1.21.06,2.56,2.56,0,0,0,1-.06,9.24,9.24,0,0,1,1.73,0c.3.15.65.11,1,.25a3.63,3.63,0,0,1,1,.61A5.1,5.1,0,0,1,516.8,63.38Z"/><path class="cls-6" d="M568.39,18.35a.22.22,0,0,1-.21.13H534.56a2.44,2.44,0,0,1-.63-.15c-.1,0-.08-.12-.08-.19a.39.39,0,0,0,0-.23q0-2.86,0-5.71a.39.39,0,0,0,0-.23,4.15,4.15,0,0,1,1.4-2.42,1.77,1.77,0,0,1,1.21-.44q14.73,0,29.46,0a1.54,1.54,0,0,1,1.22.5,7.83,7.83,0,0,0,.63.63,1.93,1.93,0,0,1,.54,1.08c0,.18.21.32.15.52a.75.75,0,0,0,0,.36q0,2.89,0,5.78A.72.72,0,0,1,568.39,18.35Z"/><path class="cls-8" d="M483,71.2c.13.1.25.21.44.14a.93.93,0,0,1,.3,0h33c.57,0,.58,0,.58-.57q0-3.06,0-6.13h.06a.43.43,0,0,1,0,.26q0,3.06,0,6.11a.41.41,0,0,1,0,.26.64.64,0,0,1-.53.13h-33a1.26,1.26,0,0,0-.49,0c-.16.06-.24-.06-.32-.17s0,0,0,0Z"/><path class="cls-9" d="M510.11,61.78H486.22c.1-.11.23-.06.34-.06h23.2C509.88,61.72,510,61.67,510.11,61.78Z"/><path class="cls-9" d="M510,9.34c-.1.1-.23.06-.35.06H486.77c-.12,0-.24,0-.35-.06H510Z"/><path class="cls-10" d="M483,71.2v.07c-.16,0-.13-.15-.13-.26q0-3,0-6.07c0-.12,0-.25.13-.31a1.86,1.86,0,0,0-.07.55c0,1.88,0,3.76,0,5.64C483,71,482.93,71.09,483,71.2Z"/><path class="cls-9" d="M517.4,71.27q0-3.31,0-6.63c.1.07.07.18.07.27q0,3,0,6.08C517.46,71.09,517.5,71.2,517.4,71.27Z"/><path class="cls-9" d="M517.47,18.88q0-3.31,0-6.63c.1.09.06.2.06.31q0,3,0,6C517.53,18.68,517.57,18.79,517.47,18.88Z"/><path class="cls-11" d="M568.39,18.35q0-3.06,0-6.12c0-.13-.05-.27.06-.38q0,3.11,0,6.22C568.46,18.17,568.49,18.28,568.39,18.35Z"/><path class="cls-12" d="M533.85,12c.1.09.06.21.06.31q0,2.77,0,5.54c0,.11,0,.22-.06.31Q533.85,15.07,533.85,12Z"/><path class="cls-13" d="M514.09,61.78h-1.73c.16-.14.36-.07.53-.06A3.74,3.74,0,0,1,514.09,61.78Z"/><path class="cls-13" d="M514,9.34a8.44,8.44,0,0,1-1.6.05,3.13,3.13,0,0,1,1-.06C513.65,9.32,513.84,9.34,514,9.34Z"/><path class="cls-14" d="M516.8,63.38a4.74,4.74,0,0,1-.73-.73A1.6,1.6,0,0,1,516.8,63.38Z"/><path class="cls-15" d="M551.18,78a10.74,10.74,0,1,1-.61,21.46A10.72,10.72,0,0,1,543.8,81,10.18,10.18,0,0,1,551.18,78Z"/><path class="cls-15" d="M500.26,25.31a10.72,10.72,0,0,1,7.06,18.79,10.71,10.71,0,0,1-17.5-5.5,10.4,10.4,0,0,1,3.06-10.32A10.19,10.19,0,0,1,500.26,25.31Z"/><path class="cls-15" d="M540.46,35.69a10.69,10.69,0,0,1,17.83-8.25,10.66,10.66,0,0,1,3.63,8A10.12,10.12,0,0,1,560.29,41a10.46,10.46,0,0,1-9.72,5.13,10.06,10.06,0,0,1-7.35-3.52A10.12,10.12,0,0,1,540.46,35.69Z"/><path class="cls-15" d="M489.47,88.36a9.92,9.92,0,0,1,3.14-7.53,10.29,10.29,0,0,1,8.16-3.12,10.5,10.5,0,0,1,6,2.25,10.63,10.63,0,0,1,4.18,8.49,10.22,10.22,0,0,1-2.18,6.44,10.45,10.45,0,0,1-9.25,4.28,10.05,10.05,0,0,1-7.15-3.4A10.28,10.28,0,0,1,489.47,88.36Z"/><path class="cls-15" d="M542.6,68.42h-2.85a1,1,0,0,1-.94-.86,8,8,0,0,1,0-1.4c0-.3.43-.65.78-.65h2.72c.5,0,1,0,1.49,0a10.91,10.91,0,0,1,1.81.05.79.79,0,0,1,.75.83c0,.41,0,.82,0,1.23a.86.86,0,0,1-.83.84Z"/><path class="cls-15" d="M557.4,66.91a1.53,1.53,0,0,1-1.52,1.61,1.63,1.63,0,0,1-1.6-1.48,1.61,1.61,0,0,1,1.48-1.69A1.7,1.7,0,0,1,557.4,66.91Z"/><path class="cls-15" d="M563.62,66.92a1.61,1.61,0,0,1-1.55,1.62A1.77,1.77,0,0,1,560.5,67a1.94,1.94,0,0,1,1.58-1.59C562.75,65.38,563.77,66.2,563.62,66.92Z"/><path class="cls-15" d="M491.64,12.78h2.72c.79,0,1.17.37,1.1,1.1,0,.3,0,.6,0,.89a.84.84,0,0,1-.92.93H488.8c-.48,0-.73-.4-.89-.84s.07-.84,0-1.27.39-.81.78-.81Z"/><path class="cls-15" d="M506.46,14.25a1.53,1.53,0,0,1-1.58,1.52,1.66,1.66,0,0,1-1.53-1.46,1.53,1.53,0,0,1,1.54-1.65A1.58,1.58,0,0,1,506.46,14.25Z"/><path class="cls-15" d="M512.69,14.2a1.57,1.57,0,0,1-1.54,1.57,1.62,1.62,0,0,1-1.56-1.58,1.85,1.85,0,0,1,1.54-1.53C511.78,12.71,512.77,13.29,512.69,14.2Z"/><path class="cls-15" d="M488.42,68.08a2.31,2.31,0,0,1-.25-.16c-.2-.17-.41-.34-.35-.66a.23.23,0,0,0-.06-.24,3.59,3.59,0,0,1,.16-1.56.58.58,0,0,1,.23-.23h.06a.63.63,0,0,1,.44-.1h3.59a.69.69,0,0,0,.35,0h1.19a3.46,3.46,0,0,0,.74,0c.11,0,.24,0,.32.1.3,0,.34.28.53.4a10.45,10.45,0,0,1,0,1.92,1.64,1.64,0,0,1-.53.53.39.39,0,0,1-.26,0h-5.92A.39.39,0,0,1,488.42,68.08Z"/><path class="cls-15" d="M504.27,65.1h.2a.78.78,0,0,1,.66-.06,2.07,2.07,0,0,1,.85.46c.1,0,.12.16.21.2h0a1.16,1.16,0,0,0,.13.27h0a2.54,2.54,0,0,0,.13.4A2,2,0,0,1,506,67.7a1,1,0,0,1-.69.38c-.16,0-.25.13-.4.14a1.77,1.77,0,0,1-1.46-.86c-.05-.16-.13-.31-.19-.47a.67.67,0,0,1,0-.46h0c.09-.12,0-.28.07-.4a2.31,2.31,0,0,1,.66-.8A1.26,1.26,0,0,1,504.27,65.1Z"/><path class="cls-15" d="M512.62,67.09c-.16.07-.16.25-.24.38a1.48,1.48,0,0,1-1.73.63l-.28-.08a1.44,1.44,0,0,1-.6-.53A1.62,1.62,0,0,1,511,65a1.55,1.55,0,0,1,1,.33,1.78,1.78,0,0,1,.6.73h0A2.94,2.94,0,0,1,512.62,67.09Z"/><path class="cls-16" d="M488.42,68.08h6.43c-.08.11-.2.07-.31.07h-5.82C488.62,68.15,488.5,68.19,488.42,68.08Z"/><path class="cls-17" d="M492.6,65.1c-.1.11-.23.06-.34.06h-3.49a1.62,1.62,0,0,0-.55.07c.08-.17.24-.13.38-.13Z"/><path class="cls-17" d="M488.16,65.24a1.08,1.08,0,0,0-.34.94c0,.28-.11.56-.06.84a.16.16,0,0,1-.07-.14c0-.41.07-.81.09-1.21A.43.43,0,0,1,488.16,65.24Z"/><path class="cls-18" d="M495.38,67.55q0-1,0-1.92a2.34,2.34,0,0,1,.06,1A1.81,1.81,0,0,1,495.38,67.55Z"/><path class="cls-19" d="M512.62,66.1l-.6-.73A1,1,0,0,1,512.62,66.1Z"/><path class="cls-20" d="M494.85,65.23a1.67,1.67,0,0,0-.67-.06c-.13,0-.28.05-.4-.06h.81C494.7,65.1,494.83,65.07,494.85,65.23Z"/><path class="cls-21" d="M509.77,67.48l.6.53A.76.76,0,0,1,509.77,67.48Z"/><path class="cls-22" d="M512.62,67.09v-1A1.52,1.52,0,0,1,512.62,67.09Z"/><path class="cls-20" d="M505.13,65a1.74,1.74,0,0,0-.66.06A.53.53,0,0,1,505.13,65Z"/><path class="cls-23" d="M506.46,66.36a.47.47,0,0,1-.13-.4A.6.6,0,0,1,506.46,66.36Z"/><path class="cls-24" d="M503.28,66.43v.46A.37.37,0,0,1,503.28,66.43Z"/><path class="cls-24" d="M503.34,66c0,.13.05.28-.07.4C503.3,66.3,503.22,66.14,503.34,66Z"/><path class="cls-23" d="M506.32,66a.24.24,0,0,1-.13-.27A.35.35,0,0,1,506.32,66Z"/><path class="cls-23" d="M506.19,65.7c-.14,0-.15-.12-.21-.2C506.12,65.5,506.14,65.61,506.19,65.7Z"/><path class="cls-20" d="M504.27,65.1a.37.37,0,0,1-.27.13A.23.23,0,0,1,504.27,65.1Z"/><path class="cls-15" d="M539.48,15a1.38,1.38,0,0,1-.63-.76c-.22-.54.12-1,0-1.51,0-.21.45-.59.67-.59,2,0,3.95,0,5.92,0,.57,0,.85.31.88.93,0,.39,0,.77,0,1.16a.87.87,0,0,1-.66.75.42.42,0,0,1-.23,0h-5.78A.42.42,0,0,1,539.48,15Z"/><path class="cls-15" d="M557.38,13.66a1.58,1.58,0,0,1-1.57,1.51,1.85,1.85,0,0,1-1.55-1.45,1.75,1.75,0,0,1,1.55-1.66A1.73,1.73,0,0,1,557.38,13.66Z"/><path class="cls-15" d="M563.62,13.91a1.85,1.85,0,0,1-1.22,1.23,1.54,1.54,0,0,1-1.7-.91c-.36-.9,0-1.48.83-1.93.19-.1.37-.29.59-.23a2.17,2.17,0,0,1,1,.5,3.34,3.34,0,0,1,.4.62C563.64,13.42,563.53,13.67,563.62,13.91Z"/><path class="cls-12" d="M539.48,15h6.23c-.09.1-.21.06-.31.06h-5.61C539.69,15.1,539.57,15.14,539.48,15Z"/><path class="cls-25" d="M563.62,13.91c-.14-.23,0-.49-.06-.73C563.69,13.41,563.59,13.67,563.62,13.91Z"/><path class="cls-4" d="M551.34,80.89a7.41,7.41,0,0,1,1.17,0,9.82,9.82,0,0,1,1.35.36,6,6,0,0,1,1.73.82,7.55,7.55,0,0,1,2,1.87,9.18,9.18,0,0,1,.75,1.21c.24.49.16.63-.33.85a3,3,0,0,0-1.64,1.49,2.72,2.72,0,0,0-.25,1.91,2.76,2.76,0,0,0,1.58,1.94,3.21,3.21,0,0,0,.55.21c.18,0,.25.18.2.39a4.53,4.53,0,0,1-.73,1.42,7,7,0,0,1-1.4,1.52A8.23,8.23,0,0,1,554,96.22a10.67,10.67,0,0,1-2.18.53,3,3,0,0,1-1.5-.06,6.19,6.19,0,0,0-.81-.13,8.17,8.17,0,0,1-2.59-1,7.72,7.72,0,0,1-2.29-2.12,7.36,7.36,0,0,1-1.06-2.2,5.86,5.86,0,0,1-.31-1.77,9.79,9.79,0,0,1,.1-2.23,8.9,8.9,0,0,1,.8-2.29,7.53,7.53,0,0,1,1.91-2.34,9.17,9.17,0,0,1,2.29-1.27A6.7,6.7,0,0,1,551.34,80.89Z"/><path class="cls-5" d="M492.27,36a7.49,7.49,0,0,1,.56-2.93,8.44,8.44,0,0,1,1.09-1.89A7.45,7.45,0,0,1,497,28.74a7.59,7.59,0,0,1,3.6-.63,7.08,7.08,0,0,1,2.15.34,11.31,11.31,0,0,1,1.39.65,6.78,6.78,0,0,1,2.43,2.09,9,9,0,0,1,.81,1.28c.22.45.13.62-.31.82a3,3,0,0,0-1.8,1.8,4,4,0,0,0-.2,1.08,2.55,2.55,0,0,0,.28,1,2.69,2.69,0,0,0,1.53,1.52l.12.05c.51.12.64.36.4.81a7.91,7.91,0,0,1-2.25,2.79,8.42,8.42,0,0,1-2.39,1.24,11,11,0,0,1-1.55.36,6.19,6.19,0,0,1-2.74-.13,8.38,8.38,0,0,1-2.32-.9,6,6,0,0,1-1.3-1,8.49,8.49,0,0,1-1.49-1.74,8.17,8.17,0,0,1-.76-1.8A7.33,7.33,0,0,1,492.27,36Z"/><path class="cls-6" d="M543.19,35.44a8.25,8.25,0,0,1,.55-2.93,7.41,7.41,0,0,1,1.09-1.94,6.75,6.75,0,0,1,1.2-1.29,6.41,6.41,0,0,1,1.87-1.13c.34-.12.67-.27,1-.38a4.09,4.09,0,0,1,.84-.21,15.27,15.27,0,0,1,2.86,0,6.37,6.37,0,0,1,1.15.32c.63.18,1.17.57,1.78.8l.06,0a8.61,8.61,0,0,1,1.81,1.7,5.37,5.37,0,0,1,1,1.72c.07.32,0,.47-.35.56a3,3,0,0,0-.95.55,2.78,2.78,0,0,0-1,1.6,2.7,2.7,0,0,0,.71,2.54,2.43,2.43,0,0,0,1.34.83c.29.06.37.41.19.78a12.13,12.13,0,0,1-.74,1.2,8.2,8.2,0,0,1-1.47,1.57,5.76,5.76,0,0,1-1.73,1c-.35.15-.73.24-1.08.42a2.06,2.06,0,0,1-.66.15,7.29,7.29,0,0,1-2.06.15,8.77,8.77,0,0,1-2.77-.76,8.6,8.6,0,0,1-1.1-.54,7,7,0,0,1-.85-.67l-.82-.82a5.82,5.82,0,0,1-1.3-2.21,6.92,6.92,0,0,1-.41-1.31A5.22,5.22,0,0,1,543.19,35.44Z"/><path class="cls-7" d="M492.53,86.38a2.21,2.21,0,0,1,.32-1.11,11,11,0,0,1,.66-1.22,7.52,7.52,0,0,1,2.63-2.48,7.81,7.81,0,0,1,2.33-.92,4,4,0,0,1,.49,0,17.57,17.57,0,0,1,2.33,0,4.31,4.31,0,0,1,2,.53,2.53,2.53,0,0,1,.67.34,3.39,3.39,0,0,1,1.27.78,7.87,7.87,0,0,1,2.11,2.63c.18.38.21.61-.3.78a2.6,2.6,0,0,0-1.7,1.52s-.07,0-.11.06a3,3,0,0,1-.14.47h0a3.57,3.57,0,0,0,0,1.53c.18.07.11.25.16.37a2.87,2.87,0,0,0,1.93,1.63c.21.05.32.17.25.41a2.53,2.53,0,0,1-.49.91,3.66,3.66,0,0,0-.2.4h0a1.37,1.37,0,0,0-.27.34,3,3,0,0,1-.68.83,7.74,7.74,0,0,1-2.05,1.44,7.89,7.89,0,0,1-4.08.83,7.74,7.74,0,0,1-2.21-.46,8.36,8.36,0,0,1-1.49-.74,7.05,7.05,0,0,1-3.16-3.77,1.15,1.15,0,0,0-.06-.12c0-.27-.18-.52-.2-.8-.2-.19-.11-.44-.13-.66a9.44,9.44,0,0,1-.1-2,1,1,0,0,0,0-.42v-.07a1.12,1.12,0,0,0,.16-.62A1,1,0,0,1,492.53,86.38Z"/><path class="cls-26" d="M492.27,87.45a.2.2,0,0,1,.06.18,18.6,18.6,0,0,0,.07,2.21,1.67,1.67,0,0,1-.13-.72C492.27,88.56,492.27,88,492.27,87.45Z"/><path class="cls-27" d="M501.29,80.62H499c.08-.09.18-.06.28-.06H501C501.11,80.55,501.21,80.52,501.29,80.62Z"/><path class="cls-28" d="M505.07,89.24a2.36,2.36,0,0,1,0-1.53A8.73,8.73,0,0,0,505.07,89.24Z"/><path class="cls-26" d="M492.53,86.38c-.11.33,0,.72-.26,1C492.41,87.06,492.31,86.68,492.53,86.38Z"/><path class="cls-28" d="M492.53,90.5a2,2,0,0,1,.2.8A1.6,1.6,0,0,1,492.53,90.5Z"/><path class="cls-23" d="M503.94,81.48a3.16,3.16,0,0,1-.67-.34A.88.88,0,0,1,503.94,81.48Z"/><path class="cls-28" d="M505.06,87.71a.91.91,0,0,1,.14-.47C505.19,87.42,505.22,87.59,505.06,87.71Z"/><path class="cls-29" d="M506.72,93a.5.5,0,0,1,.2-.4A.57.57,0,0,1,506.72,93Z"/><path class="cls-29" d="M506.46,93.29a.39.39,0,0,1,.27-.34A.65.65,0,0,1,506.46,93.29Z"/><path class="cls-15" d="M545.73,88.83a4.84,4.84,0,0,1,1.2-3.23,7.54,7.54,0,0,1,2.17-1.72.18.18,0,0,1,.24,0c.12.09.05.2,0,.26a5.1,5.1,0,0,0-.82,1.36,4.84,4.84,0,0,0-.41,1.28,11.58,11.58,0,0,0-.14,2.89,6.09,6.09,0,0,0,.39,1.88,4.3,4.3,0,0,0,1,1.84c.06.06,0,.12,0,.17a.19.19,0,0,1-.26.06c-.28-.15-.58-.28-.84-.46a5.84,5.84,0,0,1-2.09-2.39A3.82,3.82,0,0,1,545.73,88.83Z"/><path class="cls-15" d="M494.78,36.12a4.61,4.61,0,0,1,.88-2.69,6.8,6.8,0,0,1,.77-1,9.24,9.24,0,0,1,1.76-1.21.14.14,0,0,1,.2,0c.08.1,0,.19,0,.26a3.84,3.84,0,0,0-.69,1.09,6.67,6.67,0,0,0-.61,2.51A11.11,11.11,0,0,0,497,37a9.6,9.6,0,0,0,.63,2.55,4.54,4.54,0,0,0,.7,1.13c.06.08.1.15,0,.24s-.13.06-.23,0A5.89,5.89,0,0,1,496,39.27a5.41,5.41,0,0,1-1-1.92A4.29,4.29,0,0,1,494.78,36.12Z"/><path class="cls-15" d="M547.91,35.13v.93c.08.26,0,.53.06.79s.19.76.26,1.14a2.45,2.45,0,0,0,.17.52,3.54,3.54,0,0,0,.87,1.52c.08.07.14.16.06.26s-.16,0-.25,0-.38-.17-.56-.26a5.12,5.12,0,0,1-1.62-1.34,7.09,7.09,0,0,1-1.11-2.17,1.08,1.08,0,0,1,0-.3,6.31,6.31,0,0,1,0-1.32,3.85,3.85,0,0,1,.67-1.76c.21-.27.36-.6.57-.89a5.45,5.45,0,0,1,.67-.67c.33-.32.78-.42,1.08-.76.1-.12.29-.09.4-.21s.13,0,.16.06,0,.17-.06.23a3.53,3.53,0,0,0-.79,1.32,6.73,6.73,0,0,0-.45,1.65,1.53,1.53,0,0,1-.07.22C547.88,34.41,548,34.78,547.91,35.13Z"/><path class="cls-30" d="M545.78,34.86q0,.66,0,1.32A2.84,2.84,0,0,1,545.78,34.86Z"/><path class="cls-25" d="M547.91,35.13a3.45,3.45,0,0,1,.06-1.06A3.73,3.73,0,0,1,547.91,35.13Z"/><path class="cls-25" d="M548,36.85c-.14-.26,0-.53-.06-.79C548,36.31,547.94,36.59,548,36.85Z"/><path class="cls-15" d="M497.24,86.19c-.23.25-.07.58-.2.86a20,20,0,0,0,0,2,2.65,2.65,0,0,0,0,.79,6.66,6.66,0,0,0,1.15,3,.61.61,0,0,0,.24.21c0,.31-.18.38-.46.19a6,6,0,0,1-2.7-2.55,14.12,14.12,0,0,1-.55-1.42,9.34,9.34,0,0,1,0-1.72,8.36,8.36,0,0,1,.72-1.66A6.89,6.89,0,0,0,496,85c.22-.15.37-.39.6-.53l1.42-.93c.11-.08.19,0,.27,0s.07.17,0,.26c-.17.32-.49.54-.6.89s-.33.49-.32.81A1.54,1.54,0,0,0,497.24,86.19Z"/><path class="cls-31" d="M497,89.84c-.07-.05-.07-.13-.07-.21q0-1.19,0-2.37c0-.08,0-.16.07-.21Z"/><path class="cls-32" d="M494.72,87.58V89.3A4.56,4.56,0,0,1,494.72,87.58Z"/><path class="cls-33" d="M496.65,84.47c-.19.19-.33.44-.6.53C496.22,84.79,496.36,84.55,496.65,84.47Z"/><path class="cls-23" d="M498,93.28c.23.13.4.09.46-.19.15.15,0,.25-.09.3S498,93.51,498,93.28Z"/><path class="cls-17" d="M497.24,86.19a.74.74,0,0,1,.2-.67Z"/><path class="cls-4" d="M757.85,72.93h14.89c.32,0,.63.22,1,.12a11.53,11.53,0,0,1,2.65-.12c.44,0,.59.12.59.55q0,13.91,0,27.82a2.9,2.9,0,0,1-.79,1.89,3.42,3.42,0,0,1-1.33,1,2.18,2.18,0,0,1-.77.2H745.1a1.89,1.89,0,0,1-.9-.32,3.56,3.56,0,0,1-1.7-2,2.82,2.82,0,0,1-.18-.92q0-13.81,0-27.62c0-.42.22-.59.62-.59Z"/><path class="cls-5" d="M706.92,20.21h14.82c.28,0,.51.21.8.14a14.15,14.15,0,0,1,2.88-.13c.48,0,.59.11.59.58q0,13.89,0,27.78a2.9,2.9,0,0,1-.79,1.89,3.44,3.44,0,0,1-1.33,1,2.15,2.15,0,0,1-.77.2H694.17a1.89,1.89,0,0,1-.9-.32,3.55,3.55,0,0,1-1.7-2,2.84,2.84,0,0,1-.18-.92q0-13.79,0-27.59c0-.48.24-.63.65-.63Z"/><path class="cls-6" d="M757.84,19.61h14.75c.39,0,.74.25,1.13.13a11.62,11.62,0,0,1,2.62-.13.56.56,0,0,1,.26,0,.48.48,0,0,1,.34.5q0,13.94,0,27.88a2.83,2.83,0,0,1-.75,1.82,3.32,3.32,0,0,1-1.35,1.06,2.46,2.46,0,0,1-.84.21H745.14a2.18,2.18,0,0,1-1.32-.55,3.43,3.43,0,0,1-1.29-1.74,3.26,3.26,0,0,1-.21-.88q0-13.91,0-27.82c0-.32.15-.48.5-.51h15Z"/><path class="cls-7" d="M708.58,104.09H694.19a2.25,2.25,0,0,1-1.44-.66,5.5,5.5,0,0,1-.53-.5,3.66,3.66,0,0,1-.79-1.53,5.9,5.9,0,0,1-.1-1.63q0-13.28,0-26.56c0-.47.18-.63.65-.57a2.46,2.46,0,0,0,.3,0q14.57,0,29.14,0a6.57,6.57,0,0,0,1.22.07c.94-.18,1.9.06,2.84-.11.18,0,.46.25.47.43s0,.15,0,.23q0,13.64,0,27.29a3.65,3.65,0,0,1-.47,1.8,4.13,4.13,0,0,1-1.2,1.24,2.89,2.89,0,0,1-1.91.5Z"/><path class="cls-4" d="M759.66,71.79H742.89c-.36,0-.51-.15-.51-.51q0-2.9,0-5.8a3.09,3.09,0,0,1,.48-1.53,3.45,3.45,0,0,1,.76-.9,4.18,4.18,0,0,1,1.64-.84,9.09,9.09,0,0,1,2.55-.15c7.08,0,14.17,0,21.25,0a20,20,0,0,0,2.22.09,9.65,9.65,0,0,1,1.93-.1,4.12,4.12,0,0,1,3,1.5,4.88,4.88,0,0,1,.57,1.17,2.83,2.83,0,0,1,.15,1.19c0,1.77,0,3.54,0,5.3,0,.52-.05.57-.56.57H759.66Z"/><path class="cls-5" d="M725.95,18.88a.28.28,0,0,1-.34.19H692c-.21,0-.34-.14-.53-.16s-.06-.08-.06-.13c.1-2,0-4,0-6a3.2,3.2,0,0,1,.86-2.11,4,4,0,0,1,1.75-1.2c.26-.09.57-.09.84-.18a.92.92,0,0,0,.36,0h22.83a.93.93,0,0,0,.36,0,7.69,7.69,0,0,0,2.13.12,1.27,1.27,0,0,0,.32-.07,11.1,11.1,0,0,1,1.24,0,1,1,0,0,0,.36,0,4.8,4.8,0,0,1,1.81.61,3.71,3.71,0,0,1,1.38,1.54c.1.25.17.51.26.76a.42.42,0,0,1,0,.23q0,3.09,0,6.18A.41.41,0,0,1,725.95,18.88Z"/><path class="cls-7" d="M725.28,63.38a2.65,2.65,0,0,1,.53,1.25.65.65,0,0,1,.06.42q0,2.88,0,5.77c0,.5-.05.55-.55.55H692.21c-.24,0-.51.13-.7-.13-.13-.07-.08-.2-.08-.3q0-3,0-5.93a.58.58,0,0,1,.1-.37,2.17,2.17,0,0,1,.62-1.35,3.75,3.75,0,0,1,1.41-1.17c.37-.17.78-.19,1.15-.33a.74.74,0,0,1,.36,0h23.17a.72.72,0,0,1,.36,0,3.56,3.56,0,0,0,1.21.06,2.56,2.56,0,0,0,1-.06,9.24,9.24,0,0,1,1.73,0c.3.15.65.11,1,.25a3.63,3.63,0,0,1,1,.61A5.1,5.1,0,0,1,725.28,63.38Z"/><path class="cls-6" d="M776.87,18.35a.22.22,0,0,1-.21.13H743a2.44,2.44,0,0,1-.63-.15c-.1,0-.08-.12-.08-.19a.39.39,0,0,0,0-.23q0-2.86,0-5.71a.39.39,0,0,0,0-.23,4.15,4.15,0,0,1,1.4-2.42,1.77,1.77,0,0,1,1.21-.44q14.73,0,29.46,0a1.54,1.54,0,0,1,1.22.5,7.83,7.83,0,0,0,.63.63,1.93,1.93,0,0,1,.54,1.08c0,.18.21.32.15.52a.75.75,0,0,0,0,.36q0,2.89,0,5.78A.72.72,0,0,1,776.87,18.35Z"/><path class="cls-8" d="M691.53,71.2c.13.1.25.21.44.14a.93.93,0,0,1,.3,0h33c.57,0,.58,0,.58-.57q0-3.06,0-6.13h.06a.43.43,0,0,1,0,.26q0,3.06,0,6.11a.41.41,0,0,1,0,.26.64.64,0,0,1-.53.13h-33a1.26,1.26,0,0,0-.49,0c-.16.06-.24-.06-.32-.17s0,0,0,0Z"/><path class="cls-9" d="M718.59,61.78H694.7c.1-.11.23-.06.34-.06h23.2C718.36,61.72,718.49,61.67,718.59,61.78Z"/><path class="cls-9" d="M718.46,9.34c-.1.1-.23.06-.35.06H695.25c-.12,0-.24,0-.35-.06h23.55Z"/><path class="cls-10" d="M691.53,71.2v.07c-.16,0-.13-.15-.13-.26q0-3,0-6.07c0-.12,0-.25.13-.31a1.86,1.86,0,0,0-.07.55c0,1.88,0,3.76,0,5.64C691.46,71,691.41,71.09,691.53,71.2Z"/><path class="cls-9" d="M725.87,71.27q0-3.31,0-6.63c.1.07.07.18.07.27q0,3,0,6.08C725.94,71.09,726,71.2,725.87,71.27Z"/><path class="cls-9" d="M725.95,18.88q0-3.31,0-6.63c.1.09.06.2.06.31q0,3,0,6C726,18.68,726,18.79,725.95,18.88Z"/><path class="cls-11" d="M776.87,18.35q0-3.06,0-6.12c0-.13-.05-.27.06-.38q0,3.11,0,6.22C776.94,18.17,777,18.28,776.87,18.35Z"/><path class="cls-12" d="M742.33,12c.1.09.06.21.06.31q0,2.77,0,5.54c0,.11,0,.22-.06.31Q742.33,15.07,742.33,12Z"/><path class="cls-13" d="M722.57,61.78h-1.73c.16-.14.36-.07.53-.06A3.74,3.74,0,0,1,722.57,61.78Z"/><path class="cls-13" d="M722.5,9.34a8.44,8.44,0,0,1-1.6.05,3.13,3.13,0,0,1,1-.06C722.13,9.32,722.31,9.34,722.5,9.34Z"/><path class="cls-14" d="M725.28,63.38a4.74,4.74,0,0,1-.73-.73A1.6,1.6,0,0,1,725.28,63.38Z"/><path class="cls-15" d="M759.66,78A10.74,10.74,0,1,1,759,99.5,10.72,10.72,0,0,1,752.28,81,10.18,10.18,0,0,1,759.66,78Z"/><path class="cls-15" d="M708.74,25.31A10.72,10.72,0,0,1,715.8,44.1a10.71,10.71,0,0,1-17.5-5.5,10.4,10.4,0,0,1,3.06-10.32A10.19,10.19,0,0,1,708.74,25.31Z"/><path class="cls-15" d="M748.94,35.69a10.69,10.69,0,0,1,17.83-8.25,10.66,10.66,0,0,1,3.63,8A10.12,10.12,0,0,1,768.77,41,10.46,10.46,0,0,1,759,46.18a10.06,10.06,0,0,1-7.35-3.52A10.12,10.12,0,0,1,748.94,35.69Z"/><path class="cls-15" d="M698,88.36a9.92,9.92,0,0,1,3.14-7.53,10.29,10.29,0,0,1,8.16-3.12,10.5,10.5,0,0,1,6,2.25,10.63,10.63,0,0,1,4.18,8.49,10.22,10.22,0,0,1-2.18,6.44A10.45,10.45,0,0,1,708,99.16a10.05,10.05,0,0,1-7.15-3.4A10.28,10.28,0,0,1,698,88.36Z"/><path class="cls-15" d="M751.08,68.42h-2.85a1,1,0,0,1-.94-.86,8,8,0,0,1,0-1.4c0-.3.43-.65.78-.65h2.72c.5,0,1,0,1.49,0a10.91,10.91,0,0,1,1.81.05.79.79,0,0,1,.75.83c0,.41,0,.82,0,1.23a.86.86,0,0,1-.83.84Z"/><path class="cls-15" d="M765.88,66.91a1.53,1.53,0,0,1-1.52,1.61,1.63,1.63,0,0,1-1.6-1.48,1.61,1.61,0,0,1,1.48-1.69A1.7,1.7,0,0,1,765.88,66.91Z"/><path class="cls-15" d="M772.1,66.92a1.61,1.61,0,0,1-1.55,1.62A1.77,1.77,0,0,1,769,67a1.94,1.94,0,0,1,1.58-1.59C771.23,65.38,772.25,66.2,772.1,66.92Z"/><path class="cls-15" d="M700.11,12.78h2.72c.79,0,1.17.37,1.1,1.1,0,.3,0,.6,0,.89a.84.84,0,0,1-.92.93h-5.73c-.48,0-.73-.4-.89-.84s.07-.84,0-1.27.39-.81.78-.81Z"/><path class="cls-15" d="M714.94,14.25a1.53,1.53,0,0,1-1.58,1.52,1.66,1.66,0,0,1-1.53-1.46,1.53,1.53,0,0,1,1.54-1.65A1.58,1.58,0,0,1,714.94,14.25Z"/><path class="cls-15" d="M721.17,14.2a1.57,1.57,0,0,1-1.54,1.57,1.62,1.62,0,0,1-1.56-1.58,1.85,1.85,0,0,1,1.54-1.53C720.26,12.71,721.24,13.29,721.17,14.2Z"/><path class="cls-15" d="M696.9,68.08a2.31,2.31,0,0,1-.25-.16c-.2-.17-.41-.34-.35-.66a.23.23,0,0,0-.06-.24,3.59,3.59,0,0,1,.16-1.56.58.58,0,0,1,.23-.23h.06a.63.63,0,0,1,.44-.1h3.59a.69.69,0,0,0,.35,0h1.19a3.46,3.46,0,0,0,.74,0c.11,0,.24,0,.32.1.3,0,.34.28.53.4a10.45,10.45,0,0,1,0,1.92,1.64,1.64,0,0,1-.53.53.39.39,0,0,1-.26,0h-5.92A.39.39,0,0,1,696.9,68.08Z"/><path class="cls-15" d="M712.75,65.1h.2a.78.78,0,0,1,.66-.06,2.07,2.07,0,0,1,.85.46c.1,0,.12.16.21.2h0a1.16,1.16,0,0,0,.13.27h0a2.54,2.54,0,0,0,.13.4,2,2,0,0,1-.44,1.34,1,1,0,0,1-.69.38c-.16,0-.25.13-.4.14a1.77,1.77,0,0,1-1.46-.86c-.05-.16-.13-.31-.19-.47a.67.67,0,0,1,0-.46h0c.09-.12,0-.28.07-.4a2.31,2.31,0,0,1,.66-.8A1.26,1.26,0,0,1,712.75,65.1Z"/><path class="cls-15" d="M721.1,67.09c-.16.07-.16.25-.24.38a1.48,1.48,0,0,1-1.73.63l-.28-.08a1.44,1.44,0,0,1-.6-.53A1.62,1.62,0,0,1,719.5,65a1.55,1.55,0,0,1,1,.33,1.78,1.78,0,0,1,.6.73h0A2.94,2.94,0,0,1,721.1,67.09Z"/><path class="cls-16" d="M696.9,68.08h6.43c-.08.11-.2.07-.31.07H697.2C697.1,68.15,697,68.19,696.9,68.08Z"/><path class="cls-17" d="M701.08,65.1c-.1.11-.23.06-.34.06h-3.49a1.62,1.62,0,0,0-.55.07c.08-.17.24-.13.38-.13Z"/><path class="cls-17" d="M696.64,65.24a1.08,1.08,0,0,0-.34.94c0,.28-.11.56-.06.84a.16.16,0,0,1-.07-.14c0-.41.07-.81.09-1.21A.43.43,0,0,1,696.64,65.24Z"/><path class="cls-18" d="M703.86,67.55q0-1,0-1.92a2.34,2.34,0,0,1,.06,1A1.81,1.81,0,0,1,703.86,67.55Z"/><path class="cls-19" d="M721.1,66.1l-.6-.73A1,1,0,0,1,721.1,66.1Z"/><path class="cls-20" d="M703.33,65.23a1.67,1.67,0,0,0-.67-.06c-.13,0-.28.05-.4-.06h.81C703.18,65.1,703.31,65.07,703.33,65.23Z"/><path class="cls-21" d="M718.25,67.48l.6.53A.76.76,0,0,1,718.25,67.48Z"/><path class="cls-22" d="M721.1,67.09v-1A1.52,1.52,0,0,1,721.1,67.09Z"/><path class="cls-20" d="M713.61,65a1.74,1.74,0,0,0-.66.06A.53.53,0,0,1,713.61,65Z"/><path class="cls-23" d="M714.93,66.36a.47.47,0,0,1-.13-.4A.6.6,0,0,1,714.93,66.36Z"/><path class="cls-24" d="M711.75,66.43v.46A.37.37,0,0,1,711.75,66.43Z"/><path class="cls-24" d="M711.82,66c0,.13.05.28-.07.4C711.77,66.3,711.69,66.14,711.82,66Z"/><path class="cls-23" d="M714.8,66a.24.24,0,0,1-.13-.27A.35.35,0,0,1,714.8,66Z"/><path class="cls-23" d="M714.67,65.7c-.14,0-.15-.12-.21-.2C714.6,65.5,714.62,65.61,714.67,65.7Z"/><path class="cls-20" d="M712.75,65.1a.37.37,0,0,1-.27.13A.23.23,0,0,1,712.75,65.1Z"/><path class="cls-15" d="M748,15a1.38,1.38,0,0,1-.63-.76c-.22-.54.12-1,0-1.51,0-.21.45-.59.67-.59,2,0,3.95,0,5.92,0,.57,0,.85.31.88.93,0,.39,0,.77,0,1.16a.87.87,0,0,1-.66.75.42.42,0,0,1-.23,0h-5.78A.42.42,0,0,1,748,15Z"/><path class="cls-15" d="M765.86,13.66a1.58,1.58,0,0,1-1.57,1.51,1.85,1.85,0,0,1-1.55-1.45,1.75,1.75,0,0,1,1.55-1.66A1.73,1.73,0,0,1,765.86,13.66Z"/><path class="cls-15" d="M772.1,13.91a1.85,1.85,0,0,1-1.22,1.23,1.54,1.54,0,0,1-1.7-.91c-.36-.9,0-1.48.83-1.93.19-.1.37-.29.59-.23a2.17,2.17,0,0,1,1,.5,3.34,3.34,0,0,1,.4.62C772.12,13.42,772,13.67,772.1,13.91Z"/><path class="cls-12" d="M748,15h6.23c-.09.1-.21.06-.31.06h-5.61C748.17,15.1,748,15.14,748,15Z"/><path class="cls-25" d="M772.1,13.91c-.14-.23,0-.49-.06-.73C772.17,13.41,772.06,13.67,772.1,13.91Z"/><path class="cls-4" d="M759.82,80.89a7.41,7.41,0,0,1,1.17,0,9.82,9.82,0,0,1,1.35.36,6,6,0,0,1,1.73.82A7.55,7.55,0,0,1,766,84a9.18,9.18,0,0,1,.75,1.21c.24.49.16.63-.33.85a3,3,0,0,0-1.64,1.49,2.72,2.72,0,0,0-.25,1.91,2.76,2.76,0,0,0,1.58,1.94,3.21,3.21,0,0,0,.55.21c.18,0,.25.18.2.39a4.53,4.53,0,0,1-.73,1.42,7,7,0,0,1-1.4,1.52,8.23,8.23,0,0,1-2.31,1.31,10.67,10.67,0,0,1-2.18.53,3,3,0,0,1-1.5-.06,6.19,6.19,0,0,0-.81-.13,8.17,8.17,0,0,1-2.59-1,7.72,7.72,0,0,1-2.29-2.12,7.36,7.36,0,0,1-1.06-2.2,5.86,5.86,0,0,1-.31-1.77,9.79,9.79,0,0,1,.1-2.23,8.9,8.9,0,0,1,.8-2.29,7.53,7.53,0,0,1,1.91-2.34,9.17,9.17,0,0,1,2.29-1.27A6.7,6.7,0,0,1,759.82,80.89Z"/><path class="cls-5" d="M700.75,36a7.49,7.49,0,0,1,.56-2.93,8.44,8.44,0,0,1,1.09-1.89,7.45,7.45,0,0,1,3.12-2.43,7.59,7.59,0,0,1,3.6-.63,7.08,7.08,0,0,1,2.15.34,11.31,11.31,0,0,1,1.39.65,6.78,6.78,0,0,1,2.43,2.09,9,9,0,0,1,.81,1.28c.22.45.13.62-.31.82a3,3,0,0,0-1.8,1.8,4,4,0,0,0-.2,1.08,2.55,2.55,0,0,0,.28,1,2.69,2.69,0,0,0,1.53,1.52l.12.05c.51.12.64.36.4.81a7.91,7.91,0,0,1-2.25,2.79,8.42,8.42,0,0,1-2.39,1.24,11,11,0,0,1-1.55.36,6.19,6.19,0,0,1-2.74-.13,8.38,8.38,0,0,1-2.32-.9,6,6,0,0,1-1.3-1,8.49,8.49,0,0,1-1.49-1.74,8.17,8.17,0,0,1-.76-1.8A7.33,7.33,0,0,1,700.75,36Z"/><path class="cls-6" d="M751.67,35.44a8.25,8.25,0,0,1,.55-2.93,7.41,7.41,0,0,1,1.09-1.94,6.75,6.75,0,0,1,1.2-1.29,6.41,6.41,0,0,1,1.87-1.13c.34-.12.67-.27,1-.38a4.09,4.09,0,0,1,.84-.21,15.27,15.27,0,0,1,2.86,0,6.37,6.37,0,0,1,1.15.32c.63.18,1.17.57,1.78.8l.06,0a8.61,8.61,0,0,1,1.81,1.7,5.37,5.37,0,0,1,1,1.72c.07.32,0,.47-.35.56a3,3,0,0,0-.95.55,2.78,2.78,0,0,0-1,1.6,2.7,2.7,0,0,0,.71,2.54,2.43,2.43,0,0,0,1.34.83c.29.06.37.41.19.78a12.13,12.13,0,0,1-.74,1.2,8.2,8.2,0,0,1-1.47,1.57,5.76,5.76,0,0,1-1.73,1c-.35.15-.73.24-1.08.42a2.06,2.06,0,0,1-.66.15,7.29,7.29,0,0,1-2.06.15,8.77,8.77,0,0,1-2.77-.76,8.6,8.6,0,0,1-1.1-.54,7,7,0,0,1-.85-.67l-.82-.82a5.82,5.82,0,0,1-1.3-2.21,6.92,6.92,0,0,1-.41-1.31A5.22,5.22,0,0,1,751.67,35.44Z"/><path class="cls-7" d="M701,86.38a2.21,2.21,0,0,1,.32-1.11,11,11,0,0,1,.66-1.22,7.52,7.52,0,0,1,2.63-2.48,7.81,7.81,0,0,1,2.33-.92,4,4,0,0,1,.49,0,17.57,17.57,0,0,1,2.33,0,4.31,4.31,0,0,1,2,.53,2.53,2.53,0,0,1,.67.34,3.39,3.39,0,0,1,1.27.78,7.87,7.87,0,0,1,2.11,2.63c.18.38.21.61-.3.78a2.6,2.6,0,0,0-1.7,1.52s-.07,0-.11.06a3,3,0,0,1-.14.47h0a3.57,3.57,0,0,0,0,1.53c.18.07.11.25.16.37a2.87,2.87,0,0,0,1.93,1.63c.21.05.32.17.25.41a2.53,2.53,0,0,1-.49.91,3.66,3.66,0,0,0-.2.4h0a1.37,1.37,0,0,0-.27.34,3,3,0,0,1-.68.83,7.74,7.74,0,0,1-2.05,1.44,7.89,7.89,0,0,1-4.08.83,7.74,7.74,0,0,1-2.21-.46,8.36,8.36,0,0,1-1.49-.74,7.05,7.05,0,0,1-3.16-3.77,1.15,1.15,0,0,0-.06-.12c0-.27-.18-.52-.2-.8-.2-.19-.11-.44-.13-.66a9.44,9.44,0,0,1-.1-2,1,1,0,0,0,0-.42v-.07a1.12,1.12,0,0,0,.16-.62A1,1,0,0,1,701,86.38Z"/><path class="cls-26" d="M700.75,87.45a.2.2,0,0,1,.06.18,18.6,18.6,0,0,0,.07,2.21,1.67,1.67,0,0,1-.13-.72C700.75,88.56,700.75,88,700.75,87.45Z"/><path class="cls-27" d="M709.77,80.62h-2.33c.08-.09.18-.06.28-.06h1.78C709.59,80.55,709.69,80.52,709.77,80.62Z"/><path class="cls-28" d="M713.55,89.24a2.36,2.36,0,0,1,0-1.53A8.73,8.73,0,0,0,713.55,89.24Z"/><path class="cls-26" d="M701,86.38c-.11.33,0,.72-.26,1C700.89,87.06,700.79,86.68,701,86.38Z"/><path class="cls-28" d="M701,90.5a2,2,0,0,1,.2.8A1.6,1.6,0,0,1,701,90.5Z"/><path class="cls-23" d="M712.42,81.48a3.16,3.16,0,0,1-.67-.34A.88.88,0,0,1,712.42,81.48Z"/><path class="cls-28" d="M713.54,87.71a.91.91,0,0,1,.14-.47C713.67,87.42,713.7,87.59,713.54,87.71Z"/><path class="cls-29" d="M715.2,93a.5.5,0,0,1,.2-.4A.57.57,0,0,1,715.2,93Z"/><path class="cls-29" d="M714.94,93.29a.39.39,0,0,1,.27-.34A.65.65,0,0,1,714.94,93.29Z"/><path class="cls-15" d="M754.2,88.83a4.84,4.84,0,0,1,1.2-3.23,7.54,7.54,0,0,1,2.17-1.72.18.18,0,0,1,.24,0c.12.09.05.2,0,.26a5.1,5.1,0,0,0-.82,1.36,4.84,4.84,0,0,0-.41,1.28,11.58,11.58,0,0,0-.14,2.89,6.09,6.09,0,0,0,.39,1.88,4.3,4.3,0,0,0,1,1.84c.06.06,0,.12,0,.17a.19.19,0,0,1-.26.06c-.28-.15-.58-.28-.84-.46a5.84,5.84,0,0,1-2.09-2.39A3.82,3.82,0,0,1,754.2,88.83Z"/><path class="cls-15" d="M703.26,36.12a4.61,4.61,0,0,1,.88-2.69,6.8,6.8,0,0,1,.77-1,9.24,9.24,0,0,1,1.76-1.21.14.14,0,0,1,.2,0c.08.1,0,.19,0,.26a3.84,3.84,0,0,0-.69,1.09,6.67,6.67,0,0,0-.61,2.51,11.11,11.11,0,0,0,0,1.91,9.6,9.6,0,0,0,.63,2.55,4.54,4.54,0,0,0,.7,1.13c.06.08.1.15,0,.24s-.13.06-.23,0a5.89,5.89,0,0,1-2.18-1.65,5.41,5.41,0,0,1-1-1.92A4.29,4.29,0,0,1,703.26,36.12Z"/><path class="cls-15" d="M756.38,35.13v.93c.08.26,0,.53.06.79s.19.76.26,1.14a2.45,2.45,0,0,0,.17.52,3.54,3.54,0,0,0,.87,1.52c.08.07.14.16.06.26s-.16,0-.25,0-.38-.17-.56-.26a5.12,5.12,0,0,1-1.62-1.34,7.09,7.09,0,0,1-1.11-2.17,1.08,1.08,0,0,1,0-.3,6.31,6.31,0,0,1,0-1.32,3.85,3.85,0,0,1,.67-1.76c.21-.27.36-.6.57-.89a5.45,5.45,0,0,1,.67-.67c.33-.32.78-.42,1.08-.76.1-.12.29-.09.4-.21s.13,0,.16.06,0,.17-.06.23a3.53,3.53,0,0,0-.79,1.32,6.73,6.73,0,0,0-.45,1.65,1.53,1.53,0,0,1-.07.22C756.35,34.41,756.47,34.78,756.38,35.13Z"/><path class="cls-30" d="M754.25,34.86q0,.66,0,1.32A2.84,2.84,0,0,1,754.25,34.86Z"/><path class="cls-25" d="M756.38,35.13a3.45,3.45,0,0,1,.06-1.06A3.73,3.73,0,0,1,756.38,35.13Z"/><path class="cls-25" d="M756.45,36.85c-.14-.26,0-.53-.06-.79C756.51,36.31,756.42,36.59,756.45,36.85Z"/><path class="cls-15" d="M705.71,86.19c-.23.25-.07.58-.2.86a20,20,0,0,0,0,2,2.65,2.65,0,0,0,0,.79,6.66,6.66,0,0,0,1.15,3,.61.61,0,0,0,.24.21c0,.31-.18.38-.46.19a6,6,0,0,1-2.7-2.55,14.12,14.12,0,0,1-.55-1.42,9.34,9.34,0,0,1,0-1.72,8.36,8.36,0,0,1,.72-1.66,6.89,6.89,0,0,0,.6-.93c.22-.15.37-.39.6-.53l1.42-.93c.11-.08.19,0,.27,0s.07.17,0,.26c-.17.32-.49.54-.6.89s-.33.49-.32.81A1.54,1.54,0,0,0,705.71,86.19Z"/><path class="cls-31" d="M705.52,89.84c-.07-.05-.07-.13-.07-.21q0-1.19,0-2.37c0-.08,0-.16.07-.21Z"/><path class="cls-32" d="M703.2,87.58V89.3A4.56,4.56,0,0,1,703.2,87.58Z"/><path class="cls-33" d="M705.13,84.47c-.19.19-.33.44-.6.53C704.7,84.79,704.84,84.55,705.13,84.47Z"/><path class="cls-23" d="M706.45,93.28c.23.13.4.09.46-.19.15.15,0,.25-.09.3S706.51,93.51,706.45,93.28Z"/><path class="cls-17" d="M705.71,86.19a.74.74,0,0,1,.2-.67Z"/><path class="cls-34" d="M672.32,101.44c-.25.1-.18.37-.24.55a3.55,3.55,0,0,1-1.19,1.53,2.72,2.72,0,0,1-1.75.63q-14,0-28.07,0a2.16,2.16,0,0,1-1.29-.42,4.14,4.14,0,0,1-1.51-1.68,2.59,2.59,0,0,1-.24-1c0-7.48-.1-15,0-22.44,0-1.67,0-3.33,0-5,0-.57,0-.57.56-.57,1.71,0,3.42,0,5.13,0,7.46-.07,14.92-.07,22.37,0,.83,0,1.67,0,2.5.06s1.44-.11,2.16-.08a9.14,9.14,0,0,1,1.56.14Z"/><path class="cls-35" d="M672.32,48.52c-.06,0-.11,0-.12.09a3.63,3.63,0,0,1-2,2.39,2.52,2.52,0,0,1-1.19.15c-4.27,0-8.53.05-12.8.05-5,0-9.92,0-14.87,0a3.21,3.21,0,0,1-3.17-2.35,4,4,0,0,1-.12-1.07c-.1-8.07-.08-16.15,0-24.22,0-1,0-2,0-3.06,0-.28.12-.37.37-.36h.07q14.22-.1,28.43,0c.62,0,1.25.07,1.87,0s1.42-.06,2.13-.06a7.06,7.06,0,0,1,1.43.14Z"/><path class="cls-9" d="M590.77,9.29V9.16h23.69a.11.11,0,0,1,0,.17.87.87,0,0,1-.42.05H591.24C591.08,9.39,590.91,9.43,590.77,9.29Z"/><path class="cls-9" d="M641.32,9.23s0,0,0-.06H665a.08.08,0,0,1,0,.11,1,1,0,0,1-.48.06H641.85C641.67,9.33,641.48,9.37,641.32,9.23Z"/><path class="cls-36" d="M614.46,9.3V9.16h2.24a.14.14,0,0,1,0,.17.24.24,0,0,1-.16.1,9.79,9.79,0,0,1-2,0A.08.08,0,0,1,614.46,9.3Z"/><path class="cls-9" d="M672.32,71.56h-.08a.61.61,0,0,1-.09-.44q0-2.84,0-5.69a.61.61,0,0,1,.09-.44h.08Z"/><path class="cls-9" d="M672.25,12.07h.08v6.58h-.08a.61.61,0,0,1-.09-.44q0-2.84,0-5.69A.62.62,0,0,1,672.25,12.07Z"/><path class="cls-15" d="M665,9.23V9.16h2.24a.12.12,0,0,1,0,.12.29.29,0,0,1-.23.1c-.59,0-1.18,0-1.77,0C665.16,9.38,665,9.38,665,9.23Z"/><path class="cls-37" d="M616.7,9.29V9.16h1.71v.13a.31.31,0,0,1-.24.1q-.62,0-1.25,0A.31.31,0,0,1,616.7,9.29Z"/><path class="cls-13" d="M667.26,9.24V9.16H669s0,0,0,.06a.3.3,0,0,1-.23.1c-.42,0-.85,0-1.27,0A.31.31,0,0,1,667.26,9.24Z"/><path class="cls-38" d="M604.5,104.14c-4.67,0-9.34,0-14,0a2.56,2.56,0,0,1-1.44-.62,3.56,3.56,0,0,1-1.34-1.73,2.45,2.45,0,0,1-.15-.86c-.12-9.12,0-18.25-.06-27.37,0-.47.08-.56.58-.56,2,0,4,0,6.05,0,6.39-.1,12.79,0,19.18,0,1.45,0,2.9,0,4.34.07,1,.07,1.89-.15,2.84-.1,1.23.06,1.23,0,1.25,1.22.12,7.35.05,14.69,0,22,0,1.63,0,3.27-.05,4.9a2.48,2.48,0,0,1-.56,1.43A4.13,4.13,0,0,1,619.3,104a3,3,0,0,1-1.05.15Z"/><path class="cls-39" d="M604.37,51.16H590.45a1.47,1.47,0,0,1-.81-.2A4.34,4.34,0,0,1,587.77,49a4,4,0,0,1-.2-1.45c0-.8,0-1.6,0-2.4-.11-8.17,0-16.34-.06-24.51,0-.45.06-.52.52-.55h.33c2.49,0,5,0,7.47,0,5.23-.07,10.46,0,15.69,0,2,0,4.08,0,6.12.07,1,.05,1.91-.18,2.87-.09.37,0,.74.06,1.1.13.16,0,.2.09.19.23s0,.09,0,.13c0,7,0,14,0,20.93,0,2.15,0,4.3-.05,6.45a3.45,3.45,0,0,1-1.54,2.68,3,3,0,0,1-1.94.58H604.37Z"/><path class="cls-35" d="M667.26,9.24l1.71,0c.28.19.62.14.92.25a4.06,4.06,0,0,1,1.74,1.3,2.44,2.44,0,0,1,.5,1.1c0,.07,0,.15.11.19q0,3.28,0,6.57a.66.66,0,0,1-.38.07q-14.18.12-28.36,0l-4.94,0c-.47,0-.47,0-.49-.48a58.35,58.35,0,0,1,0-5.85,3.39,3.39,0,0,1,1.5-2.43,2.73,2.73,0,0,1,1.45-.61,1,1,0,0,0,.27-.12H665a.27.27,0,0,0,.24.07h1.8C667.13,9.3,667.21,9.32,667.26,9.24Z"/><path class="cls-34" d="M672.25,65q0,3.28,0,6.57a.87.87,0,0,1-.38.08q-12.63.1-25.27,0l-7.83,0h-.36c-.21,0-.32-.09-.33-.34-.08-1.86,0-3.73,0-5.59A3.58,3.58,0,0,1,640,62.63a3.64,3.64,0,0,1,2-.47q11.17,0,22.34,0a18,18,0,0,0,2.45.1,8.19,8.19,0,0,1,1.92-.11,4,4,0,0,1,3.24,2C672.06,64.44,672,64.76,672.25,65Z"/><path class="cls-38" d="M618.15,62.14a4.13,4.13,0,0,1,3.15,2,2.52,2.52,0,0,1,.41,1.5,7.71,7.71,0,0,1,0,1q0,1.73,0,3.45a6.05,6.05,0,0,1,0,.88c0,.65,0,.66-.68.66-2.07,0-4.15,0-6.22,0-6.67.1-13.33.05-20,0l-6.77,0c-.44,0-.48,0-.51-.47a41.51,41.51,0,0,1,0-4.7,10.53,10.53,0,0,1,.06-1.41,3.16,3.16,0,0,1,.71-1.45,3.55,3.55,0,0,1,2.31-1.36,10.23,10.23,0,0,1,1.4-.1H613.3c1,0,1.89.19,2.85.14.29,0,.54-.13.82-.15A5.39,5.39,0,0,1,618.15,62.14Z"/><path class="cls-40" d="M616.7,9.29h1.72a2.71,2.71,0,0,0,.7.15,3.94,3.94,0,0,1,2.13,1.69,2.74,2.74,0,0,1,.46,1.46c.06,1.4.05,2.81,0,4.21,0,.54,0,1.07-.05,1.61a.25.25,0,0,1-.28.29h-.13c-9.12.08-18.25.08-27.37,0-1.94,0-3.88,0-5.82,0-.53,0-.53,0-.56-.55-.09-1.36-.06-2.72,0-4.08a9.36,9.36,0,0,1,.11-2,3.73,3.73,0,0,1,1.85-2.38,2.39,2.39,0,0,1,1.24-.35l.49,0h22.92a.81.81,0,0,1,.36,0h1.88A.54.54,0,0,0,616.7,9.29Z"/><path class="cls-41" d="M614.48,9.36H591.24c-.18,0-.36.1-.53,0l.06-.06h23.69Z"/><path class="cls-42" d="M621.71,70.11V66.62s0,0,.06,0v3.48S621.73,70.14,621.71,70.11Z"/><path class="cls-43" d="M618.15,62.14H617A2.39,2.39,0,0,1,618.15,62.14Z"/><path class="cls-44" d="M621.77,66.63h-.06v-1A3.11,3.11,0,0,1,621.77,66.63Z"/><path class="cls-45" d="M621.71,70.11h.06a2.33,2.33,0,0,1-.06.86Z"/><path class="cls-15" d="M644.53,88.61a10.68,10.68,0,0,1,11.13-10.67,10.35,10.35,0,0,1,5.92,2.16,10.63,10.63,0,0,1,4.26,8.52,9.87,9.87,0,0,1-1.61,5.52,10.41,10.41,0,0,1-9.58,5.1,9.93,9.93,0,0,1-6.89-3A10.26,10.26,0,0,1,644.53,88.61Z"/><path class="cls-15" d="M644.5,34.45c0-1.87,1.18-4.39,3.27-6.43a10.21,10.21,0,0,1,7.9-3,10.38,10.38,0,0,1,5.92,2.16,10.55,10.55,0,0,1,4.25,8.53,10.18,10.18,0,0,1-2.24,6.46,10.43,10.43,0,0,1-8.88,4.17,9.88,9.88,0,0,1-6-2.17C645.94,42,644.54,39.14,644.5,34.45Z"/><path class="cls-15" d="M604.46,77.89a10.72,10.72,0,1,1-.34,21.42,10.21,10.21,0,0,1-7.48-3.52,10.66,10.66,0,0,1-2.7-8.17,10.74,10.74,0,0,1,10.52-9.73Z"/><path class="cls-15" d="M593.92,35.36A9.7,9.7,0,0,1,597,28.08,10.29,10.29,0,0,1,605,25a10.74,10.74,0,0,1,10.3,10.77,10.26,10.26,0,0,1-2.18,6.42,10.47,10.47,0,0,1-9,4.26,10,10,0,0,1-6.59-2.56A10.57,10.57,0,0,1,593.92,35.36Z"/><path class="cls-15" d="M646.66,15.49h-2.9a.85.85,0,0,1-.88-.81,7.49,7.49,0,0,1,0-1.32.74.74,0,0,1,.79-.78h2.4c.8,0,1.6-.07,2.39,0a5.5,5.5,0,0,1,1.43.11.62.62,0,0,1,.49.57,14.09,14.09,0,0,1,0,1.58.78.78,0,0,1-.79.7Z"/><path class="cls-15" d="M661.4,14a1.62,1.62,0,0,1-1.63,1.62,1.64,1.64,0,0,1-1.54-1.53,1.51,1.51,0,0,1,1.56-1.64A1.62,1.62,0,0,1,661.4,14Z"/><path class="cls-15" d="M667.52,14a1.55,1.55,0,0,1-1.52,1.6,1.7,1.7,0,0,1-1.58-1.5,1.77,1.77,0,0,1,1.61-1.7A1.62,1.62,0,0,1,667.52,14Z"/><path class="cls-15" d="M646.66,68.41h-2.89c-.53,0-.76-.31-.88-.82a8.24,8.24,0,0,1,0-1.45c0-.31.36-.63.7-.65h.66l4.24,0a4.34,4.34,0,0,1,1.43.11.63.63,0,0,1,.48.58c0,.52,0,1.05,0,1.58a.8.8,0,0,1-.78.69Z"/><path class="cls-15" d="M661.4,66.92a1.61,1.61,0,0,1-1.65,1.61A1.66,1.66,0,0,1,658.21,67a1.53,1.53,0,0,1,1.57-1.65A1.63,1.63,0,0,1,661.4,66.92Z"/><path class="cls-15" d="M667.52,66.93a1.55,1.55,0,0,1-1.54,1.6A1.69,1.69,0,0,1,664.42,67,1.8,1.8,0,0,1,666,65.33,1.61,1.61,0,0,1,667.52,66.93Z"/><path class="cls-15" d="M596.13,68.4h-3a.75.75,0,0,1-.78-.73c0-.18-.15-.31-.14-.5a11.54,11.54,0,0,0,.15-1.19c0-.21.47-.54.71-.54,2,0,3.95,0,5.92,0a.85.85,0,0,1,.92.95c0,.41,0,.81,0,1.22a.8.8,0,0,1-.79.79Z"/><path class="cls-15" d="M610.85,67a1.53,1.53,0,0,1-1.66,1.56,1.6,1.6,0,0,1,.05-3.21A1.68,1.68,0,0,1,610.85,67Z"/><path class="cls-15" d="M613.87,66.94c-.12-.82,1-1.6,1.55-1.62A1.69,1.69,0,0,1,617,67.25a1.64,1.64,0,0,1-1.58,1.29A1.58,1.58,0,0,1,613.87,66.94Z"/><path class="cls-15" d="M596.14,15.49h-3a.8.8,0,0,1-.79-.74c0-.18-.14-.31-.14-.5a11.09,11.09,0,0,0,.15-1.19c0-.21.48-.54.7-.54,2,0,4,0,6,0a.83.83,0,0,1,.9.89c0,.44,0,.88,0,1.32a.81.81,0,0,1-.76.75h-3Z"/><path class="cls-15" d="M610.85,14.05a1.53,1.53,0,0,1-1.65,1.56,1.65,1.65,0,0,1-1.56-1.53,1.61,1.61,0,0,1,1.62-1.69A1.68,1.68,0,0,1,610.85,14.05Z"/><path class="cls-15" d="M613.87,14c-.11-.8,1-1.6,1.57-1.61A1.7,1.7,0,0,1,617,14.33a1.66,1.66,0,0,1-1.62,1.3A1.59,1.59,0,0,1,613.87,14Z"/><path class="cls-46" d="M587.83,18.64a.59.59,0,0,1,.52-.13H621c.55,0,.49.06.49-.49q0-2.71,0-5.43a.64.64,0,0,1,0-.36c.14,0,.09.13.09.2,0,1.94,0,3.88,0,5.82,0,.26-.1.39-.37.38H587.83Z"/><path class="cls-34" d="M655.16,80.79a6.32,6.32,0,0,1,3,.49,8,8,0,0,1,3.13,2.3,9.35,9.35,0,0,1,1,1.56c.19.35,0,.56-.35.71a2.91,2.91,0,0,0-1.66,1.45,4.53,4.53,0,0,0-.33,1.29,2.12,2.12,0,0,0,.24,1.15,2.73,2.73,0,0,0,1.32,1.44,3,3,0,0,0,.45.19c.41.12.5.31.33.69a7.62,7.62,0,0,1-2.73,3.15,8.52,8.52,0,0,1-4.89,1.29,8,8,0,0,1-2.21-.49,8.34,8.34,0,0,1-3-1.93,7.2,7.2,0,0,1-1.58-2.48,8.51,8.51,0,0,1-.51-3.94,7.17,7.17,0,0,1,.66-2.37,8.12,8.12,0,0,1,2.15-2.82,7.6,7.6,0,0,1,1.48-.92A6.75,6.75,0,0,1,655.16,80.79Z"/><path class="cls-35" d="M647.33,35.58a5.09,5.09,0,0,1,.28-2.2,7.62,7.62,0,0,1,1.29-2.51,7.89,7.89,0,0,1,7.21-3,7.18,7.18,0,0,1,3.38,1.19,6.93,6.93,0,0,1,1.95,1.84c.29.4.54.82.78,1.25s.09.6-.33.77a2.89,2.89,0,0,0-1.64,1.45,4.72,4.72,0,0,0-.33,1.28,2.15,2.15,0,0,0,.25,1.17,2.71,2.71,0,0,0,1,1.23,2.46,2.46,0,0,0,.84.39c.27.06.37.2.3.47a4.24,4.24,0,0,1-.64,1.24,8.06,8.06,0,0,1-1.45,1.6,7.93,7.93,0,0,1-1.87,1.13,8.64,8.64,0,0,1-2.22.62,8.07,8.07,0,0,1-5.27-1.19,7.71,7.71,0,0,1-2.15-2,8.36,8.36,0,0,1-1.1-2.29,4.46,4.46,0,0,1-.19-.91A6.69,6.69,0,0,1,647.33,35.58Z"/><path class="cls-38" d="M596.77,88.58a7.6,7.6,0,0,1,.54-2.89c.13-.36.33-.69.46-1.06a2.93,2.93,0,0,1,.36-.52,6.07,6.07,0,0,1,1.45-1.61,13.79,13.79,0,0,1,1.58-1,6.09,6.09,0,0,1,2-.67,9,9,0,0,1,2.41-.06,7.26,7.26,0,0,1,2.2.56,7.77,7.77,0,0,1,2.84,2,7.18,7.18,0,0,1,1.15,1.79c.15.35,0,.51-.37.65a2.89,2.89,0,0,0-1.61,1.38,4.94,4.94,0,0,0-.37,1.32,2.13,2.13,0,0,0,.26,1.18,2.62,2.62,0,0,0,.73,1.05,2.36,2.36,0,0,0,1.13.6.33.33,0,0,1,.28.43,2.41,2.41,0,0,1-.35.79A9.27,9.27,0,0,1,610,94.41a8,8,0,0,1-2.58,1.53,8.59,8.59,0,0,1-1.84.46,5,5,0,0,1-1.32.08A9,9,0,0,1,602,96c-.58-.23-1.13-.52-1.69-.78a2.36,2.36,0,0,1-.67-.52,11.84,11.84,0,0,1-1.47-1.55,7.78,7.78,0,0,1-.66-1.2,11.36,11.36,0,0,1-.49-1.39,7.22,7.22,0,0,0-.17-1C596.68,89.23,596.81,88.87,596.77,88.58Z"/><path class="cls-40" d="M610.26,41.16a6.17,6.17,0,0,1-2.47,1.7,7.41,7.41,0,0,1-2.22.63,5.87,5.87,0,0,1-1.26.09,9.16,9.16,0,0,1-2.33-.48,17.41,17.41,0,0,1-1.69-.79,5.05,5.05,0,0,1-.79-.59c-.24-.2-.43-.47-.67-.68a5.11,5.11,0,0,1-1.34-1.94,8.7,8.7,0,0,1-.64-2.25,10.42,10.42,0,0,1-.08-1.75,7.23,7.23,0,0,1,.5-2.25c.13-.36.33-.7.46-1.06a3.84,3.84,0,0,1,.39-.57,5.76,5.76,0,0,1,1.46-1.64,9.42,9.42,0,0,1,2-1.19A7.49,7.49,0,0,1,602.8,28a8.91,8.91,0,0,1,2.33-.17,6.92,6.92,0,0,1,2.59.59,7.8,7.8,0,0,1,3,2.19,6.16,6.16,0,0,1,1,1.68c.12.32,0,.53-.36.59a2,2,0,0,0-.86.49,3.12,3.12,0,0,0-1.06,1.86,2.74,2.74,0,0,0,.47,2.09,2.23,2.23,0,0,0,1.54,1.11c.24,0,.38.18.29.47a4,4,0,0,1-.89,1.49A8.73,8.73,0,0,1,610.26,41.16Z"/><path class="cls-47" d="M610.26,41.16a2,2,0,0,1,.58-.73C610.81,40.8,610.47,40.92,610.26,41.16Z"/><path class="cls-15" d="M653.17,83.67a.28.28,0,0,1,.23.12c.06.1,0,.19-.06.27a4.88,4.88,0,0,0-.71,1.11,8.56,8.56,0,0,0-.53,1.71,11.52,11.52,0,0,0-.11,2.61,6.07,6.07,0,0,0,.39,1.86,4.25,4.25,0,0,0,1,1.84.17.17,0,0,1,0,.24.22.22,0,0,1-.29.06,6.25,6.25,0,0,1-2.57-2.16,5,5,0,0,1-.76-3.52,3.22,3.22,0,0,1,.43-1.23,7.79,7.79,0,0,1,1.1-1.59,14.33,14.33,0,0,1,1.8-1.28Z"/><path class="cls-15" d="M649.75,35.68a4.08,4.08,0,0,1,.67-2.38,5.48,5.48,0,0,1,1.65-1.85,9.09,9.09,0,0,0,1-.66c.09-.08.19,0,.27,0s.08.17,0,.26a7.48,7.48,0,0,0-.62.9,8.73,8.73,0,0,0-.66,2,13.41,13.41,0,0,0-.09,2.84,4.77,4.77,0,0,0,.32,1.44,5.41,5.41,0,0,0,.85,1.77c.09.11.37.19.21.41s-.35,0-.51,0A5.6,5.6,0,0,1,650.3,38,4.08,4.08,0,0,1,649.75,35.68Z"/><path class="cls-15" d="M602.68,83.67a.18.18,0,0,1,.19.11.29.29,0,0,1-.07.33,4,4,0,0,0-.79,1.33,9,9,0,0,0-.56,4.28,3.24,3.24,0,0,0,.2.91,16.93,16.93,0,0,0,.53,1.65,3.08,3.08,0,0,0,.55.75c.11.14.23.27.11.43s-.25,0-.39,0a6.87,6.87,0,0,1-1.21-.71,6.28,6.28,0,0,1-1.07-1.11,7.91,7.91,0,0,1-.73-1.33,2.2,2.2,0,0,1-.24-1c0-.36,0-.72,0-1.09a3.4,3.4,0,0,1,.67-2c.2-.27.37-.57.55-.86a3.82,3.82,0,0,1,1.42-1.2c.23-.13.38-.37.66-.43A.82.82,0,0,1,602.68,83.67Z"/><path class="cls-15" d="M602.66,30.75a.19.19,0,0,1,.21.12.28.28,0,0,1-.05.31,4.15,4.15,0,0,0-.81,1.35,10.41,10.41,0,0,0-.44,1.51,11,11,0,0,0-.12,2.77,4.81,4.81,0,0,0,.2.91,14.45,14.45,0,0,0,.53,1.64,2.9,2.9,0,0,0,.52.73c.06.09.17.14.18.27a.24.24,0,0,1-.08.24.23.23,0,0,1-.25,0,6.61,6.61,0,0,1-2.13-1.54,6.3,6.3,0,0,1-1.11-2,5.2,5.2,0,0,1-.09-2.24,3.24,3.24,0,0,1,.62-1.52,7.28,7.28,0,0,1,1-1.34,3.74,3.74,0,0,1,1.08-.75c.21-.08.34-.31.58-.39A.69.69,0,0,1,602.66,30.75Z"/></g></g></svg>